<svg xmlns="http://www.w3.org/2000/svg" width="50" height="50" viewBox="0 0 50 50"><title>bi</title><rect width="50" height="50" rx="8" ry="8" fill="#fff"/><path d="M27.8,26.1a4.1,4.1,0,0,1,.7,2.5,4.2,4.2,0,0,1-1.4,3.2,6.8,6.8,0,0,1-4,1.1H17.3a1.8,1.8,0,0,1-1.1-.3,1.8,1.8,0,0,1-.3-1.1V18.4a1.7,1.7,0,0,1,.3-1,1.8,1.8,0,0,1,1.1-.3h5.5a6.3,6.3,0,0,1,3.9,1,3.7,3.7,0,0,1,1.4,3.1,4,4,0,0,1-.6,2.2,4.3,4.3,0,0,1-1.9,1.3A4.9,4.9,0,0,1,27.8,26.1Zm-9.1-2.4h3.7c2,0,3-.7,3-2.2a2.1,2.1,0,0,0-.8-1.7,4.2,4.2,0,0,0-2.2-.5H18.7ZM25,30.1a2.1,2.1,0,0,0,.8-1.7,2.2,2.2,0,0,0-.8-1.8,3.5,3.5,0,0,0-2.3-.6h-4v4.7h4A3.3,3.3,0,0,0,25,30.1Z" fill="#f16322"/><path d="M31.6,32.7a2.1,2.1,0,0,1-.4-1.1V18.4a2.1,2.1,0,0,1,.4-1.1,1.8,1.8,0,0,1,1.1-.4,1.5,1.5,0,0,1,1,.4,1.5,1.5,0,0,1,.4,1.1V31.6a1.5,1.5,0,0,1-.4,1.1,1.5,1.5,0,0,1-1,.4A1.8,1.8,0,0,1,31.6,32.7Z" fill="#f16322"/></svg>