<svg xmlns="http://www.w3.org/2000/svg" width="50" height="50" viewBox="0 0 50 50"><title>de</title><rect width="50" height="50" rx="8" ry="8" fill="#fff"/><path d="M11.4,32.6a1.7,1.7,0,0,1-.3-1V18.4a1.7,1.7,0,0,1,.3-1,1.8,1.8,0,0,1,1.1-.3h4.4a9,9,0,0,1,6.1,2A8,8,0,0,1,25.1,25,8,8,0,0,1,23,30.9a9,9,0,0,1-6.1,2H12.5A1.8,1.8,0,0,1,11.4,32.6Zm5.3-2c3.7,0,5.5-1.9,5.5-5.6s-1.8-5.6-5.5-5.6H14V30.6Z" fill="#f16322"/><path d="M28.4,32.6a1.8,1.8,0,0,1-.4-1V18.4a1.8,1.8,0,0,1,.4-1,1.7,1.7,0,0,1,1-.3h8.2a1.7,1.7,0,0,1,1,.3,1,1,0,0,1,.3.8,1.2,1.2,0,0,1-.3.9,1.7,1.7,0,0,1-1,.3H30.9v4.3h6.2a1.5,1.5,0,0,1,1,.3,1,1,0,0,1,.4.9.9.9,0,0,1-.4.8,1.5,1.5,0,0,1-1,.3H30.9v4.6h6.7a1.7,1.7,0,0,1,1,.3,1.2,1.2,0,0,1,.3.9,1,1,0,0,1-.3.8,1.7,1.7,0,0,1-1,.3H29.4A1.7,1.7,0,0,1,28.4,32.6Z" fill="#f16322"/></svg>