<svg xmlns="http://www.w3.org/2000/svg" width="50" height="50" viewBox="0 0 50 50"><title>dns</title><rect width="50" height="50" rx="8" ry="8" fill="#fff"/><path d="M40.6,26.9H9.4a2,2,0,0,0-1.9,2V40.6a2,2,0,0,0,1.9,1.9H40.6a2,2,0,0,0,1.9-1.9V28.9A2,2,0,0,0,40.6,26.9ZM15.3,38.6a3.8,3.8,0,0,1-3.9-3.9,3.9,3.9,0,0,1,3.9-3.9,4,4,0,0,1,3.9,3.9A3.9,3.9,0,0,1,15.3,38.6ZM40.6,7.5H9.4A2,2,0,0,0,7.5,9.4V21.1a2,2,0,0,0,1.9,2H40.6a2,2,0,0,0,1.9-2V9.4A2,2,0,0,0,40.6,7.5ZM15.3,19.2a3.9,3.9,0,0,1-3.9-3.9,3.8,3.8,0,0,1,3.9-3.9,3.9,3.9,0,0,1,3.9,3.9A4,4,0,0,1,15.3,19.2Z" fill="#f16322"/></svg>