<svg xmlns="http://www.w3.org/2000/svg" width="48.6" height="50" viewBox="0 0 48.6 50"><title>gear</title><path d="M42.9,27.5a19.5,19.5,0,0,0,.2-2.5,19.4,19.4,0,0,0-.2-2.4l5.3-4.2a1.3,1.3,0,0,0,.3-1.6l-5-8.6a1.3,1.3,0,0,0-1.6-.6l-6.2,2.5a17.6,17.6,0,0,0-4.2-2.4l-1-6.6A1.2,1.2,0,0,0,29.3,0h-10a1.3,1.3,0,0,0-1.2,1.1l-1,6.6a21.8,21.8,0,0,0-4.2,2.4L6.7,7.6a1.2,1.2,0,0,0-1.5.6l-5,8.6a1.1,1.1,0,0,0,.3,1.6l5.2,4.2A19.3,19.3,0,0,0,5.6,25a20.9,20.9,0,0,0,.1,2.5L.5,31.6a1.2,1.2,0,0,0-.3,1.6l5,8.6a1.2,1.2,0,0,0,1.5.6l6.2-2.5a17.6,17.6,0,0,0,4.2,2.4l1,6.6A1.3,1.3,0,0,0,19.3,50h10a1.2,1.2,0,0,0,1.2-1.1l1-6.6a21.8,21.8,0,0,0,4.2-2.4l6.2,2.5a1.3,1.3,0,0,0,1.6-.6l5-8.6a1.4,1.4,0,0,0-.3-1.6ZM24.3,33.8A8.8,8.8,0,1,1,33.1,25,8.8,8.8,0,0,1,24.3,33.8Z" fill="#f16322"/></svg>