<svg xmlns="http://www.w3.org/2000/svg" width="50" height="50" viewBox="0 0 50 50"><title>ids</title><rect width="50" height="50" rx="8" ry="8" fill="#fff"/><path d="M7.9,32.7a1.5,1.5,0,0,1-.4-1.1V18.4a1.5,1.5,0,0,1,.4-1.1A1.8,1.8,0,0,1,9,17a1.5,1.5,0,0,1,1,.3,1.5,1.5,0,0,1,.4,1.1V31.6a1.5,1.5,0,0,1-.4,1.1,1.5,1.5,0,0,1-1,.4A1.8,1.8,0,0,1,7.9,32.7Z" fill="#f16322"/><path d="M14.2,32.6a1.8,1.8,0,0,1-.4-1V18.4a1.8,1.8,0,0,1,.4-1,1.7,1.7,0,0,1,1-.3h4.5a8.5,8.5,0,0,1,6,2A7.7,7.7,0,0,1,27.9,25c0,2.5-.7,4.5-2.2,5.8a8.1,8.1,0,0,1-6,2.1H15.2A1.7,1.7,0,0,1,14.2,32.6Zm5.3-2c3.7,0,5.5-1.9,5.5-5.6s-1.8-5.6-5.5-5.6H16.7V30.6Z" fill="#f16322"/><path d="M33,32.7a8.4,8.4,0,0,1-2.5-1.3,1.3,1.3,0,0,1-.5-1.1,1.3,1.3,0,0,1,.3-.8.9.9,0,0,1,.6-.3l1,.3a5.4,5.4,0,0,0,2,1,8.5,8.5,0,0,0,2.3.3,4.2,4.2,0,0,0,2.5-.6,1.7,1.7,0,0,0,.9-1.6,1.5,1.5,0,0,0-.8-1.4,8.8,8.8,0,0,0-2.7-.8,20.6,20.6,0,0,1-3.2-1A4.2,4.2,0,0,1,31,23.9a3.8,3.8,0,0,1-.6-2.2,4.3,4.3,0,0,1,.7-2.5,6.2,6.2,0,0,1,2.2-1.7,8.3,8.3,0,0,1,3.2-.6,7.4,7.4,0,0,1,5.2,1.7,1.2,1.2,0,0,1,.5.5,3.5,3.5,0,0,1,.1.6,1.3,1.3,0,0,1-.3.8.9.9,0,0,1-.7.3h-.4l-.5-.3a8.1,8.1,0,0,0-1.8-1,6.6,6.6,0,0,0-2.1-.3,4.3,4.3,0,0,0-2.4.6,2,2,0,0,0-.9,1.7,1.6,1.6,0,0,0,.8,1.4,7.3,7.3,0,0,0,2.7,1,15.2,15.2,0,0,1,3.2,1,4,4,0,0,1,1.9,1.4,3,3,0,0,1,.7,2.1,4.4,4.4,0,0,1-.8,2.5,4.7,4.7,0,0,1-2.2,1.6,7.9,7.9,0,0,1-3.2.6A11.5,11.5,0,0,1,33,32.7Z" fill="#f16322"/></svg>