<svg xmlns="http://www.w3.org/2000/svg" width="50" height="50" viewBox="0 0 50 50"><title>ipm</title><rect width="50" height="50" rx="8" ry="8" fill="#fff"/><path d="M7.1,32.7a1.5,1.5,0,0,1-.4-1.1V18.4a1.5,1.5,0,0,1,.4-1.1,1.5,1.5,0,0,1,1-.4,1.8,1.8,0,0,1,1.1.4,2.1,2.1,0,0,1,.4,1.1V31.6a2.1,2.1,0,0,1-.4,1.1,1.8,1.8,0,0,1-1.1.4A1.5,1.5,0,0,1,7.1,32.7Z" fill="#f16322"/><path d="M13.4,32.7a1.5,1.5,0,0,1-.4-1.1V18.4a1.3,1.3,0,0,1,.4-1,1.5,1.5,0,0,1,1-.3h5.5a6.2,6.2,0,0,1,4,1.2,4.9,4.9,0,0,1,1.4,3.6,4.9,4.9,0,0,1-1.4,3.6,6.2,6.2,0,0,1-4,1.3h-4v4.8a1.5,1.5,0,0,1-.4,1.1,1.8,1.8,0,0,1-1.1.4A1.8,1.8,0,0,1,13.4,32.7Zm6.2-8.2c2,0,3-.8,3-2.6s-1-2.6-3-2.6H15.9v5.2Z" fill="#f16322"/><path d="M42.9,17.3a1.5,1.5,0,0,1,.4,1.1V31.7a1.5,1.5,0,0,1-.3,1,1.8,1.8,0,0,1-1,.4,1.3,1.3,0,0,1-.9-.4,1.5,1.5,0,0,1-.3-1V22.4l-3.9,7.3a1.3,1.3,0,0,1-.5.7,1.2,1.2,0,0,1-.8.2.8.8,0,0,1-.7-.2,2.2,2.2,0,0,1-.6-.7l-3.9-7.2v9.2a1.7,1.7,0,0,1-.3,1,1.5,1.5,0,0,1-.9.4,1.8,1.8,0,0,1-1-.4,1.5,1.5,0,0,1-.3-1V18.4a1.5,1.5,0,0,1,.4-1.1,1.3,1.3,0,0,1,1-.4,1.6,1.6,0,0,1,1.3,1l5,9.5,5-9.5a1.6,1.6,0,0,1,1.3-1A1.3,1.3,0,0,1,42.9,17.3Z" fill="#f16322"/></svg>