<svg xmlns="http://www.w3.org/2000/svg" width="50" height="50" viewBox="0 0 50 50"><title>ips</title><rect width="50" height="50" rx="8" ry="8" fill="#fff"/><path d="M9,32.7a1.5,1.5,0,0,1-.4-1.1V18.4A1.5,1.5,0,0,1,9,17.3a1.5,1.5,0,0,1,1-.3,1.8,1.8,0,0,1,1.1.3,2.1,2.1,0,0,1,.4,1.1V31.6a2.1,2.1,0,0,1-.4,1.1,1.8,1.8,0,0,1-1.1.4A1.5,1.5,0,0,1,9,32.7Z" fill="#f16322"/><path d="M15.3,32.7a1.4,1.4,0,0,1-.4-1.1V18.4a1.3,1.3,0,0,1,.4-1,1.5,1.5,0,0,1,1-.3h5.5a6.2,6.2,0,0,1,4,1.2,4.9,4.9,0,0,1,1.4,3.6,4.9,4.9,0,0,1-1.4,3.6,6.2,6.2,0,0,1-4,1.3h-4v4.8a1.4,1.4,0,0,1-.4,1.1,1.8,1.8,0,0,1-1.1.4A1.8,1.8,0,0,1,15.3,32.7Zm6.2-8.2c2,0,3-.8,3-2.6s-1-2.6-3-2.6H17.8v5.2Z" fill="#f16322"/><path d="M32,32.7a6.5,6.5,0,0,1-2.5-1.3,1.1,1.1,0,0,1-.6-1.1,1.3,1.3,0,0,1,.3-.8.9.9,0,0,1,.7-.3,1.6,1.6,0,0,1,.9.3,5.4,5.4,0,0,0,2,1,8.8,8.8,0,0,0,2.4.3,4.4,4.4,0,0,0,2.5-.6,1.7,1.7,0,0,0,.9-1.6,1.6,1.6,0,0,0-.9-1.4,7.9,7.9,0,0,0-2.7-.8,24.9,24.9,0,0,1-3.2-1,4.9,4.9,0,0,1-1.9-1.5,3.8,3.8,0,0,1-.6-2.2,4.4,4.4,0,0,1,.8-2.5,4.8,4.8,0,0,1,2.2-1.7,7.8,7.8,0,0,1,3.1-.6,7.7,7.7,0,0,1,5.3,1.7,1,1,0,0,1,.4.5c.1.1.1.3.1.6a1.3,1.3,0,0,1-.3.8.7.7,0,0,1-.6.3h-.4l-.5-.3-1.8-1a6.9,6.9,0,0,0-2.2-.3,4.3,4.3,0,0,0-2.4.6,2,2,0,0,0-.9,1.7,1.6,1.6,0,0,0,.8,1.4,7.3,7.3,0,0,0,2.7,1,15.2,15.2,0,0,1,3.2,1,4.3,4.3,0,0,1,2,1.4,3.5,3.5,0,0,1,.6,2.1,3.8,3.8,0,0,1-.8,2.5,4.9,4.9,0,0,1-2.1,1.6,8.4,8.4,0,0,1-3.3.6A11.2,11.2,0,0,1,32,32.7Z" fill="#f16322"/></svg>