<svg xmlns="http://www.w3.org/2000/svg" width="50" height="50" viewBox="0 0 50 50"><title>lic</title><rect width="50" height="50" rx="8" ry="8" fill="#fff"/><path d="M9.6,32.6a1.8,1.8,0,0,1-.4-1V18.4a2.1,2.1,0,0,1,.4-1.1,1.8,1.8,0,0,1,1.1-.3,1.5,1.5,0,0,1,1,.3,1.5,1.5,0,0,1,.4,1.1V30.5h6.4c.9,0,1.3.4,1.3,1.2s-.4,1.2-1.3,1.2H10.6A1.5,1.5,0,0,1,9.6,32.6Z" fill="#f16322"/><path d="M22.1,32.7a2.1,2.1,0,0,1-.4-1.1V18.4a2.1,2.1,0,0,1,.4-1.1,1.8,1.8,0,0,1,1.1-.3,1.2,1.2,0,0,1,1.4,1.4V31.6a1.5,1.5,0,0,1-.4,1.1,1.5,1.5,0,0,1-1,.4A1.8,1.8,0,0,1,22.1,32.7Z" fill="#f16322"/><path d="M31.1,32.1a6.4,6.4,0,0,1-2.6-2.8,9.7,9.7,0,0,1-.9-4.3,9.4,9.4,0,0,1,.9-4.3,6.4,6.4,0,0,1,2.6-2.8,7.7,7.7,0,0,1,4-1,8.2,8.2,0,0,1,2.8.4,5.8,5.8,0,0,1,2.3,1.3c.2.1.4.3.4.4a1.4,1.4,0,0,1,.2.7,1.1,1.1,0,0,1-.3.8.9.9,0,0,1-.7.3l-.9-.3a5.4,5.4,0,0,0-1.8-1,5.2,5.2,0,0,0-1.8-.3,4.3,4.3,0,0,0-3.6,1.5A6.7,6.7,0,0,0,30.5,25a6.7,6.7,0,0,0,1.2,4.3,4.3,4.3,0,0,0,3.6,1.5,5.7,5.7,0,0,0,1.8-.3,8.5,8.5,0,0,0,1.8-1l.5-.2h.4a.9.9,0,0,1,.7.3,1.1,1.1,0,0,1,.3.8.8.8,0,0,1-.2.6.7.7,0,0,1-.4.5,5.8,5.8,0,0,1-2.3,1.3,8.2,8.2,0,0,1-2.8.4A7.7,7.7,0,0,1,31.1,32.1Z" fill="#f16322"/></svg>