<svg xmlns="http://www.w3.org/2000/svg" width="100" height="100" viewBox="0 0 100 100"><title>money-nobg</title><rect width="100" height="100" rx="8" ry="8" fill="#fafafa"/><path d="M50,15A35,35,0,1,0,85,50,35,35,0,0,0,50,15Zm4.9,56.3V78H45.6V71.2c-6-1.2-11.1-5.1-11.5-11.9H41c.4,3.7,2.9,6.6,9.3,6.6s8.4-3.4,8.4-5.6-1.6-5.6-9.4-7.5S34.7,47.2,34.7,40s4.9-9.9,10.9-11.2V22h9.3v6.8c6.5,1.6,9.8,6.5,10,11.9H58.1c-.2-3.9-2.3-6.6-7.8-6.6s-8.4,2.4-8.4,5.8,2.3,4.9,9.3,6.7,14.7,4.8,14.7,13.7C65.8,66.7,61,70.2,54.9,71.3Z" fill="#f16322"/></svg>