<svg xmlns="http://www.w3.org/2000/svg" width="50" height="50" viewBox="0 0 50 50"><title>money</title><rect width="50" height="50" rx="8" ry="8" fill="#fff"/><path d="M25,7.5A17.5,17.5,0,1,0,42.5,25,17.5,17.5,0,0,0,25,7.5Zm2.5,28.2V39H22.8V35.6c-3-.6-5.5-2.5-5.7-5.9h3.4c.2,1.8,1.4,3.2,4.6,3.2s4.2-1.7,4.2-2.7-.7-2.9-4.6-3.8-7.3-2.8-7.3-6.4,2.4-5,5.4-5.6V11h4.7v3.4a6.3,6.3,0,0,1,5,5.9H29c-.1-1.9-1.1-3.2-3.9-3.2s-4.2,1.2-4.2,2.8,1.2,2.5,4.7,3.4,7.3,2.4,7.3,6.8S30.5,35.1,27.5,35.7Z" fill="#f16322"/></svg>