<svg xmlns="http://www.w3.org/2000/svg" width="50" height="50" viewBox="0 0 50 50"><title>person-work</title><rect width="50" height="50" rx="8" ry="8" fill="#fff"/><path d="M37.2,11H29.9a5.2,5.2,0,0,0-9.8,0H12.8a3.6,3.6,0,0,0-3.6,3.5V39a3.6,3.6,0,0,0,3.6,3.5H37.2A3.6,3.6,0,0,0,40.8,39V14.5A3.6,3.6,0,0,0,37.2,11ZM25,11a1.8,1.8,0,0,1,1.8,1.8,1.8,1.8,0,0,1-3.6,0A1.8,1.8,0,0,1,25,11Zm0,7a5.3,5.3,0,1,1-5.2,5.2A5.2,5.2,0,0,1,25,18ZM35.5,39h-21V36.6c0-3.5,7-5.5,10.5-5.5s10.5,2,10.5,5.5Z" fill="#f16322"/></svg>