<svg xmlns="http://www.w3.org/2000/svg" width="50" height="50" viewBox="0 0 50 50"><title>plug</title><rect width="50" height="50" rx="8" ry="8" fill="#fff"/><path d="M13.9,9.1a1.6,1.6,0,0,0-1.6-1.6,1.6,1.6,0,0,0-1.6,1.6v6.4H7.5V25H17V15.5H13.9Zm6.3,22.3a4.8,4.8,0,0,0,3.2,4.4v6.7h3.2V35.8a4.8,4.8,0,0,0,3.2-4.4V28.2H20.2Zm-12.7,0a4.6,4.6,0,0,0,3.2,4.4v6.7h3.2V35.8A4.7,4.7,0,0,0,17,31.4V28.2H7.5ZM39.3,15.5V9.1a1.6,1.6,0,0,0-1.6-1.6,1.6,1.6,0,0,0-1.6,1.6v6.4H33V25h9.5V15.5ZM26.6,9.1a1.6,1.6,0,0,0-3.2,0v6.4H20.2V25h9.6V15.5H26.6ZM33,31.4a4.7,4.7,0,0,0,3.1,4.4v6.7h3.2V35.8a4.6,4.6,0,0,0,3.2-4.4V28.2H33Z" fill="#f16322"/></svg>