<svg xmlns="http://www.w3.org/2000/svg" width="50" height="50" viewBox="0 0 50 50"><title>pto</title><rect width="50" height="50" rx="8" ry="8" fill="#fff"/><path d="M4.4,32.7A1.8,1.8,0,0,1,4,31.6V18.4a1.8,1.8,0,0,1,.4-1,1.7,1.7,0,0,1,1-.3H11a5.7,5.7,0,0,1,3.9,1.2,4.5,4.5,0,0,1,1.4,3.6,4.5,4.5,0,0,1-1.4,3.6A5.7,5.7,0,0,1,11,26.8H6.9v4.8a1.8,1.8,0,0,1-.3,1.1,2.1,2.1,0,0,1-1.1.4A1.8,1.8,0,0,1,4.4,32.7Zm6.2-8.2c2,0,3-.8,3-2.6s-1-2.6-3-2.6H6.9v5.2Z" fill="#f16322"/><path d="M22.6,32.7a2.1,2.1,0,0,1-.4-1.1V19.5H18.1c-.9,0-1.3-.4-1.3-1.2s.4-1.2,1.3-1.2H29.2c.9,0,1.4.4,1.4,1.2s-.5,1.2-1.4,1.2H25.1V31.6a2,2,0,0,1-.3,1.1,2.2,2.2,0,0,1-2.2,0Z" fill="#f16322"/><path d="M34.4,32.1a6.4,6.4,0,0,1-2.6-2.8,9.7,9.7,0,0,1-.9-4.3,9.4,9.4,0,0,1,.9-4.3,6.4,6.4,0,0,1,2.6-2.8,7.4,7.4,0,0,1,4-1,7.2,7.2,0,0,1,4,1A5.9,5.9,0,0,1,45,20.7,8.3,8.3,0,0,1,46,25a8.5,8.5,0,0,1-1,4.3,6.4,6.4,0,0,1-2.6,2.8,7.2,7.2,0,0,1-4,1A7.4,7.4,0,0,1,34.4,32.1Zm7.4-2.8A6.7,6.7,0,0,0,43.1,25a6.7,6.7,0,0,0-1.3-4.3,4.1,4.1,0,0,0-3.4-1.5A4.2,4.2,0,0,0,35,20.7,6.7,6.7,0,0,0,33.8,25,6.7,6.7,0,0,0,35,29.3a4.2,4.2,0,0,0,3.4,1.5A4.1,4.1,0,0,0,41.8,29.3Z" fill="#f16322"/></svg>