<svg xmlns="http://www.w3.org/2000/svg" width="50" height="50" viewBox="0 0 50 50"><title>tm</title><rect width="50" height="50" rx="8" ry="8" fill="#fff"/><path d="M15.3,32.6a1.5,1.5,0,0,1-.3-1V19.4H10.9c-.9,0-1.4-.4-1.4-1.2s.5-1.1,1.4-1.1H22c.9,0,1.3.4,1.3,1.1s-.4,1.2-1.3,1.2H17.9V31.6a1.5,1.5,0,0,1-.4,1,1.4,1.4,0,0,1-1.1.4A1.5,1.5,0,0,1,15.3,32.6Z" fill="#f16322"/><path d="M40.1,17.3a1.5,1.5,0,0,1,.4,1.1V31.7a1.2,1.2,0,0,1-.4,1,1.2,1.2,0,0,1-1.8,0,1.2,1.2,0,0,1-.4-1V22.4l-3.8,7.3a2.2,2.2,0,0,1-.6.7.8.8,0,0,1-.7.2,1.1,1.1,0,0,1-.8-.2,2.2,2.2,0,0,1-.6-.7l-3.8-7.2v9.2a1.7,1.7,0,0,1-.3,1,1.8,1.8,0,0,1-1,.4,1.3,1.3,0,0,1-.9-.4,1.5,1.5,0,0,1-.3-1V18.4a2,2,0,0,1,.3-1.1,1.8,1.8,0,0,1,1-.4,1.6,1.6,0,0,1,1.4,1l5,9.5,5-9.5a1.5,1.5,0,0,1,1.3-1A1.5,1.5,0,0,1,40.1,17.3Z" fill="#f16322"/></svg>