<svg xmlns="http://www.w3.org/2000/svg" width="50" height="50" viewBox="0 0 50 50"><title>tm2</title><rect width="50" height="50" rx="8" ry="8" fill="#fff"/><path d="M21.4,14.1v3.3H16.1V35.9H12.8V17.4H7.5V14.1Z" fill="#f16322"/><path d="M32.6,27.9a3,3,0,0,1,.4,1l.3-1.1a4.2,4.2,0,0,0,.4-1l5.2-12,.2-.4.3-.2h3.1V35.9H39.6V21c0-.3.1-.7.1-1L34.4,32.4a1.5,1.5,0,0,1-.5.6.9.9,0,0,1-.7.3h-.4a.9.9,0,0,1-.7-.3,1.5,1.5,0,0,1-.5-.6L26.2,20a2.8,2.8,0,0,1,.1.9v15H23.4V14.1h3.2l.2.2a.5.5,0,0,1,.2.4l5.3,12.1Z" fill="#f16322"/></svg>