<svg xmlns="http://www.w3.org/2000/svg" width="50" height="50" viewBox="0 0 50 50"><title>world</title><rect width="50" height="50" rx="8" ry="8" fill="#fff"/><path d="M25,7.5A17.5,17.5,0,1,0,42.5,25,17.5,17.5,0,0,0,25,7.5ZM37.1,18H31.9a22.2,22.2,0,0,0-2.4-6.2A13.8,13.8,0,0,1,37.1,18ZM25,11.1A22,22,0,0,1,28.3,18H21.7A22,22,0,0,1,25,11.1ZM11.5,28.5A13.4,13.4,0,0,1,11,25a13.4,13.4,0,0,1,.5-3.5h5.9a20.6,20.6,0,0,0,0,7ZM12.9,32h5.2a22.2,22.2,0,0,0,2.4,6.2A13.8,13.8,0,0,1,12.9,32Zm5.2-14H12.9a13.8,13.8,0,0,1,7.6-6.2A22.2,22.2,0,0,0,18.1,18ZM25,38.9A22,22,0,0,1,21.7,32h6.6A22,22,0,0,1,25,38.9Zm4.1-10.4H20.9a20.7,20.7,0,0,1-.3-3.5,19.8,19.8,0,0,1,.3-3.5h8.2a19.8,19.8,0,0,1,.3,3.5A20.7,20.7,0,0,1,29.1,28.5Zm.4,9.7A22.2,22.2,0,0,0,31.9,32h5.2A13.8,13.8,0,0,1,29.5,38.2Zm3.1-9.7a20.6,20.6,0,0,0,0-7h5.9A13.4,13.4,0,0,1,39,25a13.4,13.4,0,0,1-.5,3.5Z" fill="#f16322"/></svg>