<svg xmlns="http://www.w3.org/2000/svg" xmlns:xlink="http://www.w3.org/1999/xlink" width="901" height="526">
  <image width="901" height="526" xlink:href="./img/diagrams/diagram-mobile1.png"/>
  <rect x="30.2" y="27.5" width="840" height="465" rx="8" ry="8" fill="#fafafa"/>
  <path d="M38.2 27.5h824a8 8 0 0 1 8 8V58h-840V35.5a8 8 0 0 1 8-8z" fill="#fff"/>
  <path fill="none" stroke="#e0e0e0" stroke-miterlimit="10" d="M871 58H30.2"/>
  <ellipse cx="851.3" cy="43" rx="4.9" ry="5" fill="#ff6159"/>
  <ellipse cx="836.6" cy="43" rx="4.9" ry="5" fill="#ffbd2e"/>
  <ellipse cx="821.8" cy="43" rx="4.9" ry="5" fill="#28ca42"/>
  <rect x="46" y="73" width="260" height="125" rx="8" ry="8" fill="#fff" stroke="#e0e0e0" stroke-miterlimit="10"/>
  <path d="M156.9 123.5a22.9 22.9 0 0 1-1.5-8.2c0-12.1 9.3-22 20.6-22s20.6 9.9 20.6 22a22.9 22.9 0 0 1-1.5 8.2h5.4a28.6 28.6 0 0 0 1.2-8.2c0-15-11.5-27.3-25.7-27.3s-25.7 12.3-25.7 27.3a28.6 28.6 0 0 0 1.2 8.2z" fill="#f16322"/>
  <path d="M202.8 131.8h-53.5a2.5 2.5 0 0 1-2.4-1.2 2.8 2.8 0 0 1 0-2.8 2.5 2.5 0 0 1 2.4-1.2h53.5a2.5 2.5 0 0 1 2.3 1.2 2.8 2.8 0 0 1 0 2.8 2.5 2.5 0 0 1-2.3 1.2zM192.1 134.2h-32.2a2.6 2.6 0 0 0-2.4 1.2 3.4 3.4 0 0 0 0 2.8 2.6 2.6 0 0 0 2.4 1.2h32.2a2.5 2.5 0 0 0 2.4-1.2 2.8 2.8 0 0 0 0-2.8 2.5 2.5 0 0 0-2.4-1.2" fill="#f5884f"/>
  <path d="M181.7 141.8h-11.3a2.4 2.4 0 0 0-2.4 1.3 2.6 2.6 0 0 0 0 2.7 2.5 2.5 0 0 0 2.4 1.2h11.3a2.6 2.6 0 0 0 0-5.2" fill="#f8ac80"/>
  <text transform="translate(94.4 176)" font-size="18" font-family="Montserrat-Regular, Montserrat">
    Helios<tspan x="55.8" y="0" letter-spacing="-.02em">C</tspan><tspan x="68.8" y="0">ompl</tspan><tspan x="115.8" y="0" letter-spacing="0em">e</tspan><tspan x="126.9" y="0">t</tspan><tspan x="134.4" y="0" letter-spacing="-.02em">e</tspan><tspan x="145.2" y="0">™</tspan>
  </text>
  <rect x="321" y="73" width="535" height="125" rx="8" ry="8" fill="#fff" stroke="#e0e0e0" stroke-miterlimit="10"/>
  <path fill="#e0e0e0" d="M345 121.9h66.5v4.36H345zM345 131.9h91.7v4.36H345zM345 141.9h46.8v4.36H345zM345 151.9h91.5v4.36H345zM374.2 161.9h62.3v4.36h-62.3z"/>
  <path fill="none" stroke="#e0e0e0" stroke-linecap="round" stroke-miterlimit="10" d="M335 106.3h506M446.1 183V88M588.8 183V88M731.4 183V88"/>
  <path fill="#b7b7b7" d="M345 92.3h91.5v7.83H345zM456.1 92.3h121.4v7.83H456.1z"/>
  <path fill="#e0e0e0" d="M456.1 121.9h121.4v4.36H456.1zM476.5 131.9h101v4.36h-101zM456.1 141.9h121.4v4.36H456.1zM456.1 151.9h66.2v4.36h-66.2zM456.1 161.9h121.4v4.36H456.1zM599.4 121.9h85.5v4.36h-85.5zM636.8 131.9h84v4.36h-84zM599.4 141.9h121.4v4.36H599.4zM660.1 151.9h60.7v4.36h-60.7zM599.4 161.9h97.4v4.36h-97.4zM740 119.7h91.5v4.36H740zM771.6 129.7h59.9v4.36h-59.9zM740 139.7h82.5v4.36H740zM740 149.7h74v4.36h-74zM740 159.7h91.5v4.36H740z"/>
  <path fill="#b7b7b7" d="M598.8 92.3h121.4v7.83H598.8zM740 92.3h91.5v7.83H740z"/>
  <path fill="#e0e0e0" d="M61 263h505v25H61z"/>
  <path fill="none" stroke="#e0e0e0" stroke-miterlimit="10" d="M187.5 254.5v43M313.5 254.5v43M566 254.5v43"/>
  <rect x="46" y="213" width="535" height="125" rx="8" ry="8" fill="#fff" stroke="#e0e0e0" stroke-miterlimit="10"/>
  <path fill="none" stroke="#e0e0e0" stroke-miterlimit="10" d="M61 254.5v43"/>
  <path fill="#b7b7b7" d="M566 301.6l-6.3 4.7h12.7l-6.4-4.7zM313.5 300l-6.3 4.7h12.7l-6.4-4.7zM187.5 300l-6.3 4.7h12.6l-6.3-4.7zM61 299.3l-6.3 4.6h12.6l-6.3-4.6zM566 251.7l-6.3-4.6h12.7l-6.4 4.6zM313.5 251.7l-6.3-4.6h12.7l-6.4 4.6zM187.5 251.7l-6.3-4.6h12.6l-6.3 4.6zM61 251.8l-6.3-4.7h12.6l-6.3 4.7z"/>
  <path fill="#f8ac80" d="M61 263h126.5v25H61z"/>
  <path fill="#f5884f" d="M187.5 263H314v25H187.5z"/>
  <path fill="#f16322" d="M313.5 263H566v25H313.5z"/>
  <rect x="596" y="213" width="260" height="125" rx="8" ry="8" fill="#fff" stroke="#e0e0e0" stroke-miterlimit="10"/>
  <path fill="#e0e0e0" d="M611.2 262.4h85.5v4.36h-85.5zM648.6 272.4h84v4.36h-84zM611.2 282.4h121.4v4.36H611.2zM671.9 292.4h60.7v4.36h-60.7zM611.2 302.4h97.4v4.36h-97.4z"/>
  <path fill="#b7b7b7" d="M610.5 244.3h121.4v7.83H610.5z"/>
  <path d="M763.9 275.5a30.1 30.1 0 0 1 30.1-30.1V233a42.6 42.6 0 0 0 0 85.1v-12.5a30.1 30.1 0 0 1-30.1-30.1z" fill="#f16322"/>
  <path d="M830.9 254.3l-10.8 6.2a29.2 29.2 0 0 1 4 15 30.1 30.1 0 0 1-30.1 30.1v12.5a40.8 40.8 0 0 0 21.3-5.7 42.6 42.6 0 0 0 15.6-58.1z" fill="#f8ac80"/>
  <path d="M794 245.4a30.1 30.1 0 0 1 26.1 15.1l10.8-6.2A41.4 41.4 0 0 0 794 233v12.4z" fill="#f5884f"/>
  <rect x="596" y="353" width="260" height="125" rx="8" ry="8" fill="#fff" stroke="#e0e0e0" stroke-miterlimit="10"/>
  <path fill="none" stroke="#e0e0e0" stroke-miterlimit="10" d="M611.3 462.2h105.2M611.3 462.2v-90"/>
  <path fill="none" stroke="#f16322" stroke-miterlimit="10" stroke-width="2" d="M705.1 452.4L622.6 420"/>
  <path fill="none" stroke="#f5884f" stroke-miterlimit="10" stroke-width="2" d="M705.1 457.8l-82.5-24.3M705.1 370.5l-82.5 81M705.1 429l-82.5-58.5"/>
  <path fill="none" stroke="#f8ac80" stroke-miterlimit="10" stroke-width="2" d="M705.1 397.5l-82.5 27"/>
  <path fill="none" stroke="#f16322" stroke-miterlimit="10" stroke-width="2" d="M705.1 406.5l-82.5 36"/>
  <path fill="#f16322" d="M620.1 417.5h5v5h-5zM702.6 449.9h5v5h-5z"/>
  <path fill="#f5884f" d="M620.1 431h5v5h-5zM702.6 455.3h5v5h-5zM620.1 449h5v5h-5zM702.6 368h5v5h-5zM620.1 368h5v5h-5zM702.6 426.5h5v5h-5z"/>
  <path fill="#f8ac80" d="M620.1 422h5v5h-5zM702.6 395h5v5h-5z"/>
  <path fill="#f16322" d="M620.1 440h5v5h-5zM702.6 404h5v5h-5z"/>
  <path fill="#e0e0e0" d="M737 402.1h72.6v4.36H737zM768.8 412.1h71.3v4.36h-71.3zM737 422.1h103v4.36H737zM788.5 432.1H840v4.36h-51.5zM737 442.1h82.6v4.36H737z"/>
  <path fill="#b7b7b7" d="M736.5 384.6h103v7.83h-103z"/>
  <rect x="321" y="353" width="260" height="125" rx="8" ry="8" fill="#fff" stroke="#e0e0e0" stroke-miterlimit="10"/>
  <path fill="none" stroke="#e0e0e0" stroke-miterlimit="10" d="M336.1 462.9H566"/>
  <path fill="none" stroke="#000" stroke-miterlimit="10" d="M336.1 462.9v-2.4"/>
  <path fill="none" stroke="#e0e0e0" stroke-miterlimit="10" d="M336.1 462.9V368"/>
  <path fill="#f16322" d="M523.6 385.1H542v77.8h-18.4z"/>
  <path fill="#f8ac80" d="M503.2 445.8h18.4v17.08h-18.4z"/>
  <path fill="#f5884f" d="M482.8 429.7h18.4v33.21h-18.4z"/>
  <path fill="#f16322" d="M462.3 453.4h18.4v9.49h-18.4z"/>
  <path fill="#f5884f" d="M441.9 439.2h18.4v23.72h-18.4z"/>
  <path fill="#f16322" d="M421.4 387h18.4v75.91h-18.4z"/>
  <path fill="#f8ac80" d="M401 406h18.4v56.93H401z"/>
  <path fill="#f5884f" d="M380.6 425H399v37.95h-18.4z"/>
  <path fill="#f16322" d="M360.1 443.9h18.4v18.98h-18.4z"/>
  <rect x="46" y="353" width="260" height="125" rx="8" ry="8" fill="#fff" stroke="#e0e0e0" stroke-miterlimit="10"/>
  <path d="M102.3 415.5L65 437a42.9 42.9 0 0 1 15.8-58.7 40.4 40.4 0 0 1 21.5-5.8z" fill="#f5884f"/>
  <path d="M102.3 415.5l37.2-21.5A43 43 0 1 1 65 437z" fill="#f8ac80"/>
  <path d="M102.3 415.5v-43a41.9 41.9 0 0 1 37.2 21.5z" fill="#f16322"/>
  <text transform="translate(46 46.9)" font-size="12" fill="#e0e0e0" font-family="Montserrat-Regular, Montserrat">
    v 1<tspan x="14.7" y="0" letter-spacing="-.01em">.</tspan><tspan x="18" y="0">0</tspan>
  </text>
  <path fill="#b7b7b7" d="M210.6 394.2h79.3v7.7h-79.3z"/>
  <path fill="#e0e0e0" d="M210.6 412.8h56.8v4.28h-56.8zM210.6 422.6h78.5v4.28h-78.5zM210.6 432.4h40.1v4.28h-40.1z"/>
  <path fill="#b7b7b7" d="M167.9 394.3h27.5v16.13h-27.5zM167.9 420.8h27.5v16.13h-27.5z"/>
  <path fill="#999" d="M167.9 419.1h8.5v3.82h-8.5zM167.9 392.3h8.5v3.82h-8.5z"/>
</svg>
