
<svg xmlns="http://www.w3.org/2000/svg" xmlns:xlink="http://www.w3.org/1999/xlink" width="797.7" height="459.3" viewBox="0,0,797.7,459.3">
  <image width="481" height="294" transform="matrix(.96 0 0 .96 167.7 69.7)" xlink:href="diagram1.png" style="isolation:isolate"/>
  <rect x="197.1" y="96.5" width="403.2" height="223.2" rx="7.7" ry="7.7" fill="#fafafa"/>
  <path d="M204.8 96.5h387.8a7.6 7.6 0 0 1 7.7 7.7v7H197.1v-7a7.6 7.6 0 0 1 7.7-7.7z" fill="#fff"/>
  <path fill="none" stroke="#e0e0e0" stroke-miterlimit="10" d="M600.7 111.2H197.1"/>
  <circle cx="591.3" cy="104" r="2.4" fill="#ff6159"/>
  <circle cx="584.2" cy="104" r="2.4" fill="#ffbd2e"/>
  <circle cx="577.1" cy="104" r="2.4" fill="#28ca42"/>
  <rect x="204.7" y="118.4" width="124.8" height="60" rx="7.7" ry="7.7" fill="#fff" stroke="#e0e0e0" stroke-miterlimit="10"/>
  <path d="M258 142.6a11 11 0 0 1-.8-4c0-5.8 4.5-10.5 9.9-10.5s9.9 4.7 9.9 10.5a10.9 10.9 0 0 1-.7 4h2.6a13.4 13.4 0 0 0 .6-4c0-7.2-5.6-13-12.4-13s-12.3 5.8-12.3 13a13.4 13.4 0 0 0 .6 4z" fill="#f16322"/>
  <path d="M280 146.5h-25.7a1 1 0 0 1-1.1-.6.9.9 0 0 1 0-1.2 1.1 1.1 0 0 1 1.1-.7H280a1.4 1.4 0 0 1 1.1.7 1.3 1.3 0 0 1 0 1.2 1.1 1.1 0 0 1-1.1.6zM274.9 147.7h-15.5a1 1 0 0 0-1.1.6 1.1 1.1 0 0 0 0 1.3 1.2 1.2 0 0 0 1.1.7h15.5a1.4 1.4 0 0 0 1.1-.7 1.5 1.5 0 0 0 0-1.3 1.3 1.3 0 0 0-1.1-.6" fill="#f5884f"/>
  <path d="M269.8 151.3h-5.4a1.2 1.2 0 0 0-1.1.7 1.3 1.3 0 0 0 0 1.2 1.1 1.1 0 0 0 1.1.7h5.4a1.3 1.3 0 0 0 1.1-1.2 1.4 1.4 0 0 0-1.1-1.4" fill="#f8ac80"/>
  <path d="M228.8 167.7v-5.9h1v2.6h3v-2.6h1.1v5.9h-1.1v-2.4h-3v2.4zM239.6 165.9h-3.5a.9.9 0 0 0 .4.8 2.5 2.5 0 0 0 .9.4 2 2 0 0 0 1.4-.6l.5.6a2.6 2.6 0 0 1-1.9.7 1.9 1.9 0 0 1-1.6-.6 2.4 2.4 0 0 1-.7-1.8 2.3 2.3 0 0 1 .7-1.7 2.3 2.3 0 0 1 1.6-.6 2.5 2.5 0 0 1 1.6.6 1.7 1.7 0 0 1 .6 1.5zm-3.5-.8h2.6a.9.9 0 0 0-.4-.8 1 1 0 0 0-.9-.4 1.5 1.5 0 0 0-.9.4.9.9 0 0 0-.4.8zM241.7 167.7h-1v-6.3h1zM243.2 162.3l-.2-.4c0-.2 0-.4.2-.5l.4-.2.5.2c0 .1.1.3 0 .5s0 .2 0 .4l-.5.2zm.9 5.4h-1v-4.5h1zM249.3 167.2a2.7 2.7 0 0 1-3.4 0 2.5 2.5 0 0 1-.8-1.7 2.3 2.3 0 0 1 .8-1.7 2.4 2.4 0 0 1 3.4 0 2.4 2.4 0 0 1 0 3.4zm-2.8-.6a1.5 1.5 0 0 0 1.1.4 1.3 1.3 0 0 0 1-.4 1.7 1.7 0 0 0 0-2.2 1.3 1.3 0 0 0-1-.4 1.4 1.4 0 0 0-1.5 1.5 2.1 2.1 0 0 0 .4 1.1zM254.3 166.4a.9.9 0 0 1-.5 1 1.2 1.2 0 0 1-1.1.4 1.5 1.5 0 0 1-1.1-.2l-.9-.4.5-.8a3.4 3.4 0 0 0 1.5.6h.5a.8.8 0 0 0 .2-.4c0-.3-.3-.5-.9-.7h-.1c-1-.3-1.4-.7-1.4-1.2a1.5 1.5 0 0 1 .4-1.1 2 2 0 0 1 1.3-.4 2.7 2.7 0 0 1 1.5.5l-.4.7a2.1 2.1 0 0 0-1.1-.4.7.7 0 0 0-.6.2c-.2 0-.2.2-.2.4s0 .2.2.3h1l.4.2.3.2a.9.9 0 0 1 .5 1.1zM258.4 166.9l.8-.2a2.4 2.4 0 0 0 .9-.6l.6.7a2.7 2.7 0 0 1-2.3 1 3.6 3.6 0 0 1-2.3-.8 3.1 3.1 0 0 1-.9-2.2 3 3 0 0 1 .9-2.3 3.2 3.2 0 0 1 2.4-.9 3.4 3.4 0 0 1 2.3 1l-.6.7-.9-.6-.8-.2a2.4 2.4 0 0 0-1.6.7 2.2 2.2 0 0 0 1.5 3.7zM265.6 167.2a2.3 2.3 0 0 1-1.8.6 2.1 2.1 0 0 1-1.7-.6 2.8 2.8 0 0 1-.7-1.7 2.3 2.3 0 0 1 .7-1.7 2.2 2.2 0 0 1 1.7-.7 2.4 2.4 0 0 1 1.8.7 2.7 2.7 0 0 1 0 3.4zm-2.8-.6a1.3 1.3 0 0 0 1 .4 2.1 2.1 0 0 0 1.1-.4 3.6 3.6 0 0 0 .4-1.1 2.1 2.1 0 0 0-.4-1.1 1.5 1.5 0 0 0-1.1-.4 1.3 1.3 0 0 0-1 .4 1.7 1.7 0 0 0 0 2.2zM268.2 165.3v2.4h-.9v-4.5h.9v.8l.7-.7.9-.2a1.6 1.6 0 0 1 1.5.9 1.9 1.9 0 0 1 1.6-.9 1.9 1.9 0 0 1 1.4.5 2.4 2.4 0 0 1 .5 1.3v2.8h-1.1v-2.5c0-.8-.3-1.2-1-1.2a1.1 1.1 0 0 0-.8.3 1.1 1.1 0 0 0-.4.9v2.5h-1v-2.5a2.9 2.9 0 0 0-.2-.9 1.1 1.1 0 0 0-.8-.3l-.9.3a3 3 0 0 0-.4 1zM278.5 163.1a2.3 2.3 0 0 1 1.6.6 2.3 2.3 0 0 1 .7 1.7 2.4 2.4 0 0 1-.7 1.8 1.9 1.9 0 0 1-1.5.6 1.5 1.5 0 0 1-1.5-.7v2.4h-1v-6.3h1v.8a1.7 1.7 0 0 1 1.4-.9zm-1.5 2.4a1.6 1.6 0 0 0 .5 1.1 1.1 1.1 0 0 0 .9.4 1.8 1.8 0 0 0 1-.4 2.1 2.1 0 0 0 .4-1.1 1.5 1.5 0 0 0-.4-1.1 1.3 1.3 0 0 0-1-.4 1.1 1.1 0 0 0-.9.4 1.6 1.6 0 0 0-.5 1.1zM282.8 167.7h-.9v-6.3h.9zM288.5 165.9h-3.6a1.4 1.4 0 0 0 .5.8 1.8 1.8 0 0 0 1 .4 1.4 1.4 0 0 0 1.2-.6l.6.6a2.6 2.6 0 0 1-1.9.7 1.9 1.9 0 0 1-1.6-.6 2.1 2.1 0 0 1-.7-1.8 2.3 2.3 0 0 1 .7-1.7 2.3 2.3 0 0 1 1.6-.6 2 2 0 0 1 1.5.6 1.8 1.8 0 0 1 .7 1.5zm-3.6-.8h2.6a.8.8 0 0 0-.3-.8 1.2 1.2 0 0 0-.9-.4 1.8 1.8 0 0 0-1 .4 1.2 1.2 0 0 0-.4.8zM290.7 164v2.3c0 .2.1.3.2.5s.3.2.5.2l.6-.3.4.6a1.3 1.3 0 0 1-1.1.5 1.5 1.5 0 0 1-1.1-.4 1.6 1.6 0 0 1-.5-1.1V164h-.5v-.8h.5v-1.4h1v1.4h1.3v.8zM297.4 165.9h-3.5a.9.9 0 0 0 .4.8 2.5 2.5 0 0 0 .9.4 2 2 0 0 0 1.4-.6l.5.6a2.6 2.6 0 0 1-1.9.7 1.9 1.9 0 0 1-1.6-.6 2.1 2.1 0 0 1-.7-1.8 2.3 2.3 0 0 1 .7-1.7 2.3 2.3 0 0 1 1.6-.6 2.5 2.5 0 0 1 1.6.6 1.7 1.7 0 0 1 .6 1.5zm-3.5-.8h2.6a.9.9 0 0 0-.4-.8 1.1 1.1 0 0 0-.9-.4 1.5 1.5 0 0 0-.9.4.7.7 0 0 0-.4.8zM299.8 162.3v2.9h-.5v-2.9h-1.2v-.5h2.8v.5zm2.3 2.9h-.5v-3.4h.9l1.1 2.2 1-2.2h.9v3.4h-.6v-2.7l-1.2 2.4h-.3l-1.3-2.4z"/>
  <rect x="336.7" y="118.4" width="256.8" height="60" rx="7.7" ry="7.7" fill="#fff" stroke="#e0e0e0" stroke-miterlimit="10"/>
  <path fill="#e0e0e0" d="M348.2 141.8h31.9v2.09h-31.9zM348.2 146.6h44.1v2.09h-44.1zM348.2 151.4h22.5v2.09h-22.5zM348.2 156.2h43.9v2.09h-43.9zM362.2 161h30v2.09h-30z"/>
  <path fill="none" stroke="#e0e0e0" stroke-linecap="round" stroke-miterlimit="10" d="M343.4 134.3h242.9M396.8 171.2v-45.6M465.2 171.2v-45.6M533.7 171.2v-45.6"/>
  <path fill="#b7b7b7" d="M348.2 127.6h43.9v3.76h-43.9zM401.6 127.6h58.3v3.76h-58.3z"/>
  <path fill="#e0e0e0" d="M401.6 141.8h58.3v2.09h-58.3zM411.3 146.6h48.5v2.09h-48.5zM401.6 151.4h58.3v2.09h-58.3zM401.6 156.2h31.8v2.09h-31.8zM401.6 161h58.3v2.09h-58.3zM470.3 141.8h41v2.09h-41zM488.3 146.6h40.3v2.09h-40.3zM470.3 151.4h58.3v2.09h-58.3zM499.5 156.2h29.1v2.09h-29.1zM470.3 161h46.8v2.09h-46.8zM537.8 140.8h43.9v2.09h-43.9zM553 145.6h28.8v2.09H553zM537.8 150.4h39.6v2.09h-39.6zM537.8 155.2h35.5v2.09h-35.5zM537.8 160h43.9v2.09h-43.9z"/>
  <path fill="#b7b7b7" d="M470 127.6h58.3v3.76H470zM537.8 127.6h43.9v3.76h-43.9z"/>
  <path fill="#e0e0e0" d="M211.9 209.6h242.4v12H211.9z"/>
  <path fill="none" stroke="#e0e0e0" stroke-miterlimit="10" d="M272.7 205.5v20.6M333.1 205.5v20.6M454.3 205.5v20.6"/>
  <rect x="204.7" y="185.6" width="256.8" height="60" rx="7.7" ry="7.7" fill="#fff" stroke="#e0e0e0" stroke-miterlimit="10"/>
  <path fill="none" stroke="#e0e0e0" stroke-miterlimit="10" d="M211.9 205.5v20.6"/>
  <path fill="#b7b7b7" d="M454.3 228l-3 2.3h6.1l-3.1-2.3zM333.1 227.3l-3 2.3h6l-3-2.3zM272.7 227.3l-3.1 2.3h6l-2.9-2.3zM211.9 227l-3 2.2h6.1l-3.1-2.2zM454.3 204.1l-3-2.2h6.1l-3.1 2.2zM333.1 204.1l-3-2.2h6l-3 2.2zM272.7 204.1l-3.1-2.2h6l-2.9 2.2zM211.9 204.1l-3-2.2h6.1l-3.1 2.2z"/>
  <path fill="#f8ac80" d="M211.9 209.6h60.7v12h-60.7z"/>
  <path fill="#f5884f" d="M272.7 209.6h60.7v12h-60.7z"/>
  <path fill="#f16322" d="M333.1 209.6h121.2v12H333.1z"/>
  <rect x="468.7" y="185.6" width="124.8" height="60" rx="7.7" ry="7.7" fill="#fff" stroke="#e0e0e0" stroke-miterlimit="10"/>
  <path fill="#e0e0e0" d="M476 209.2h41v2.09h-41zM493.9 214h40.3v2.09h-40.3zM476 218.8h58.3v2.09H476zM505.2 223.6h29.1v2.09h-29.1zM476 228.4h46.8v2.09H476z"/>
  <path fill="#b7b7b7" d="M475.7 200.6H534v3.76h-58.3z"/>
  <path d="M549.3 215.5a14.5 14.5 0 0 1 14.4-14.4v-6a20.5 20.5 0 0 0 0 40.9v-6a14.5 14.5 0 0 1-14.4-14.5z" fill="#f16322"/>
  <path d="M581.5 205.4l-5.2 2.9a15.2 15.2 0 0 1 1.9 7.2 14.5 14.5 0 0 1-14.5 14.5v6a19.7 19.7 0 0 0 10.3-2.8 20.4 20.4 0 0 0 7.5-27.8z" fill="#f8ac80"/>
  <path d="M563.7 201.1a14.7 14.7 0 0 1 12.6 7.2l5.2-2.9a19.9 19.9 0 0 0-17.8-10.3z" fill="#f5884f"/>
  <rect x="468.7" y="252.8" width="124.8" height="60" rx="7.7" ry="7.7" fill="#fff" stroke="#e0e0e0" stroke-miterlimit="10"/>
  <path fill="none" stroke="#e0e0e0" stroke-miterlimit="10" d="M476.1 305.1h50.5M476.1 305.1v-43.2"/>
  <path fill="none" stroke="#f16322" stroke-miterlimit="10" stroke-width="2" d="M521.1 300.4l-39.6-15.5"/>
  <path fill="none" stroke="#f5884f" stroke-miterlimit="10" stroke-width="2" d="M521.1 303l-39.6-11.6M521.1 261.1L481.5 300M521.1 289.2l-39.6-28.1"/>
  <path fill="none" stroke="#f8ac80" stroke-miterlimit="10" stroke-width="2" d="M521.1 274.1l-39.6 13"/>
  <path fill="none" stroke="#f16322" stroke-miterlimit="10" stroke-width="2" d="M521.1 278.4l-39.6 17.3"/>
  <path fill="#f16322" d="M480.3 283.7h2.4v2.4h-2.4zM519.9 299.3h2.4v2.4h-2.4z"/>
  <path fill="#f5884f" d="M480.3 290.1h2.4v2.4h-2.4zM519.9 301.8h2.4v2.4h-2.4zM480.3 298.8h2.4v2.4h-2.4zM519.9 260h2.4v2.4h-2.4zM480.3 260h2.4v2.4h-2.4zM519.9 288h2.4v2.4h-2.4z"/>
  <path fill="#f8ac80" d="M480.3 285.8h2.4v2.4h-2.4zM519.9 272.9h2.4v2.4h-2.4z"/>
  <path fill="#f16322" d="M480.3 294.5h2.4v2.4h-2.4zM519.9 277.3h2.4v2.4h-2.4z"/>
  <path fill="#e0e0e0" d="M536.4 276.3h34.8v2.09h-34.8zM551.6 281.1h34.2v2.09h-34.2zM536.4 285.9h49.4v2.09h-49.4zM561.1 290.7h24.8v2.09h-24.8zM536.4 295.5H576v2.09h-39.6z"/>
  <path fill="#b7b7b7" d="M536.2 268h49.4v3.76h-49.4z"/>
  <rect x="336.7" y="252.8" width="124.8" height="60" rx="7.7" ry="7.7" fill="#fff" stroke="#e0e0e0" stroke-miterlimit="10"/>
  <path fill="none" stroke="#e0e0e0" stroke-miterlimit="10" d="M344 305.5h110.3"/>
  <path fill="none" stroke="#000" stroke-miterlimit="10" d="M344 305.5v-1.2"/>
  <path fill="none" stroke="#e0e0e0" stroke-miterlimit="10" d="M344 305.5V260"/>
  <path fill="#f16322" d="M433.9 268.1h8.8v37.34h-8.8z"/>
  <path fill="#f8ac80" d="M424.1 297.3h8.8v8.2h-8.8z"/>
  <path fill="#f5884f" d="M414.4 289.6h8.8v15.94h-8.8z"/>
  <path fill="#f16322" d="M404.6 301h8.8v4.55h-8.8z"/>
  <path fill="#f5884f" d="M394.8 294.1h8.8v11.39h-8.8z"/>
  <path fill="#f16322" d="M384.9 269.1h8.8v36.43h-8.8z"/>
  <path fill="#f8ac80" d="M375.1 278.1h8.8v27.32h-8.8z"/>
  <path fill="#f5884f" d="M365.3 287.3h8.8v18.22h-8.8z"/>
  <path fill="#f16322" d="M355.5 296.4h8.8v9.11h-8.8z"/>
  <rect x="204.7" y="252.8" width="124.8" height="60" rx="7.7" ry="7.7" fill="#fff" stroke="#e0e0e0" stroke-miterlimit="10"/>
  <path fill="#b7b7b7" d="M281.9 272.4h38.8v3.76h-38.8z"/>
  <path fill="#e0e0e0" d="M281.9 281.5h27.8v2.09h-27.8zM281.9 286.3h38.4v2.09h-38.4zM281.9 291.1h19.6v2.09h-19.6z"/>
  <path d="M231.8 282.7l-18 10.4a20.7 20.7 0 0 1 7.6-28.2 18.9 18.9 0 0 1 10.4-2.8z" fill="#f5884f"/>
  <path d="M231.8 282.7l17.8-10.2a20.7 20.7 0 0 1-35.8 20.6z" fill="#f8ac80"/>
  <path d="M231.8 282.7v-20.6a20 20 0 0 1 17.8 10.4z" fill="#f16322"/>
  <g style="isolation:isolate" font-size="5.76" fill="#e0e0e0" font-family="Montserrat-Regular, Montserrat">
    <text transform="translate(204.7 105.8)" style="isolation:isolate">
      v 1
    </text>
    <text transform="translate(211.8 105.8)" letter-spacing="-.01em" style="isolation:isolate">
      .
    </text>
    <text transform="translate(213.3 105.8)" style="isolation:isolate">
      0
    </text>
  </g>
  <circle cx="591.6" cy="121.3" r="7.4" fill="#f16322"/>
  <circle cx="591.6" cy="121.3" r="2.4" fill="#fafafa"/>
  <path fill="none" stroke="#f16322" stroke-miterlimit="10" d="M593.9 121.3H617M617 96.5v24.8"/>
  <rect x="600.7" y=".5" width="156.4" height="96" rx="7.7" ry="7.7" fill="#fff" stroke="#f16322" stroke-miterlimit="10"/>
  <circle cx="591.6" cy="310.6" r="7.4" fill="#f16322"/>
  <circle cx="591.6" cy="310.6" r="2.4" fill="#fafafa"/>
  <path fill="none" stroke="#f16322" stroke-miterlimit="10" d="M593.9 310.6H617M617 335.4v-24.8"/>
  <rect x="600.7" y="335.4" width="156.4" height="96" rx="7.7" ry="7.7" fill="#fff" stroke="#f16322" stroke-miterlimit="10"/>
  <circle cx="591.3" cy="188" r="7.4" fill="#f16322"/>
  <circle cx="591.3" cy="188" r="2.4" fill="#fafafa"/>
  <path fill="none" stroke="#f16322" stroke-miterlimit="10" d="M593.6 188h47.2"/>
  <rect x="640.8" y="173.6" width="156.4" height="96" rx="7.7" ry="7.7" fill="#fff" stroke="#f16322" stroke-miterlimit="10"/>
  <circle cx="206.2" cy="121.3" r="7.4" fill="#f16322"/>
  <circle cx="206.2" cy="121.3" r="2.4" fill="#fafafa"/>
  <path fill="none" stroke="#f16322" stroke-miterlimit="10" d="M203.8 121.3h-23.1M180.7 96.5v24.8"/>
  <rect x="40.6" y=".5" width="156.4" height="96" rx="7.7" ry="7.7" fill="#fff" stroke="#f16322" stroke-miterlimit="10"/>
  <circle cx="206.2" cy="310.6" r="7.4" fill="#f16322"/>
  <circle cx="206.2" cy="310.6" r="2.4" fill="#fafafa"/>
  <path fill="none" stroke="#f16322" stroke-miterlimit="10" d="M203.8 310.6h-23.1M180.7 335.4v-24.8"/>
  <rect x="40.6" y="335.3" width="156.4" height="96" rx="7.7" ry="7.7" fill="#fff" stroke="#f16322" stroke-miterlimit="10"/>
  <circle cx="206.4" cy="188" r="7.4" fill="#f16322"/>
  <circle cx="206.4" cy="188" r="2.4" fill="#fafafa"/>
  <path fill="none" stroke="#f16322" stroke-miterlimit="10" d="M204.1 188h-47.2"/>
  <rect x=".5" y="173.5" width="156.4" height="96" rx="7.7" ry="7.7" fill="#fff" stroke="#f16322" stroke-miterlimit="10"/>
  <circle cx="401.6" cy="313.3" r="7.4" fill="#f16322"/>
  <circle cx="401.6" cy="313.3" r="2.4" fill="#fafafa"/>
  <path fill="none" stroke="#f16322" stroke-miterlimit="10" d="M401.6 315.6v47.2"/>
  <rect x="323.3" y="362.8" width="156.4" height="96" rx="7.7" ry="7.7" fill="#fff" stroke="#f16322" stroke-miterlimit="10"/>
  <text transform="translate(608.3 34.2)" font-size="9" font-family="OpenSans-Regular, Open Sans">
    Access the industry’s most <tspan x="0" y="12">sophisticated docketing module </tspan><tspan x="0" y="24">powered by DocketEngine™ </tspan><tspan x="0" y="36">including auto-docketing and </tspan><tspan x="0" y="48">global PTO data</tspan>
  </text>
  <text transform="translate(648.4 208.1)" font-size="9" font-family="OpenSans-Regular, Open Sans">
    Generate beautiful portfolio <tspan x="0" y="12">reports that puts information </tspan><tspan x="0" y="24">into the hands of stakeholders </tspan><tspan x="0" y="36">and enables better decision </tspan><tspan x="0" y="48">making</tspan>
  </text>
  <text transform="translate(48.2 34.2)" font-size="9" font-family="OpenSans-Regular, Open Sans">
    Helios Complete provides our <tspan x="0" y="12">clients a unified platform for </tspan><tspan x="0" y="24">accessing our services and the </tspan><tspan x="0" y="36">information needed for their IP </tspan><tspan x="0" y="48">activities</tspan>
  </text>
  <text transform="translate(8.1 203.7)" font-size="9" font-family="OpenSans-Regular, Open Sans">
    Proactively manage IP costs with <tspan x="0" y="12">budget and spend analytics that </tspan><tspan x="0" y="24">connect expenses to assets, </tspan><tspan x="0" y="36">families and portfolios</tspan>
  </text>
  <text transform="translate(48.2 368.8)" font-size="9" font-family="OpenSans-Regular, Open Sans">
    Store, retrieve and archive IP <tspan x="0" y="12">documents in a secure document </tspan><tspan x="0" y="24">management system that has </tspan><tspan x="0" y="36">been optimized for IP</tspan>
  </text>
  <text transform="translate(330.9 395.7)" font-size="9" font-family="OpenSans-Regular, Open Sans">
    Manage all aspects of your <tspan x="0" y="12">portfolio maintenance including </tspan><tspan x="0" y="24">reviewing assets, assigning </tspan><tspan x="0" y="36">ratings, and making annuity </tspan><tspan x="0" y="48">payment decisions</tspan>
  </text>
  <text transform="translate(608.3 369.4)" font-size="9" font-family="OpenSans-Regular, Open Sans">
    Visualize workload allocation and <tspan x="0" y="12">project future resource require</tspan><tspan x="130.2" y="12">-</tspan><tspan x="0" y="24">ments by understanding matter </tspan><tspan x="0" y="36">assignments and upcoming due </tspan><tspan x="0" y="48">dates</tspan>
  </text>
  <path fill="#b7b7b7" d="M261 272.4h13.5v7.89H261z"/>
  <path fill="#999" d="M261 271.4h4.1v1.87H261z"/>
  <path fill="#b7b7b7" d="M261 285.4h13.5v7.89H261z"/>
  <path fill="#999" d="M261 284.4h4.1v1.87H261z"/>
  <text transform="translate(608.3 19.9)" font-size="12" font-family="OpenSans-Regular, Open Sans">
    Docketing
  </text>
  <text transform="translate(648.4 192.9)" font-size="12" font-family="OpenSans-Regular, Open Sans">
    Reporting
  </text>
  <text transform="translate(608.3 354.4)" font-size="12" font-family="OpenSans-Regular, Open Sans">
    Workload
  </text>
  <text transform="translate(330.9 380.9)" font-size="12" font-family="OpenSans-Regular, Open Sans">
    Maintenance
  </text>
  <text transform="translate(48.2 354.4)" font-size="12" font-family="OpenSans-Regular, Open Sans">
    Documents
  </text>
  <text transform="translate(8.1 190.4)" font-size="12" font-family="OpenSans-Regular, Open Sans">
    Budgets
  </text>
  <text transform="translate(48.2 19.9)" font-size="12" font-family="OpenSans-Regular, Open Sans">
    Portal
  </text>
</svg>