<svg xmlns="http://www.w3.org/2000/svg" width="567" height="345">
  <path d="M559 0H8a8 8 0 0 0-8 8v329a8 8 0 0 0 8 8h12.4v-31a8 8 0 0 1 8-8h154.7a8 8 0 0 1 8 8v31h20.1v-31a8 8 0 0 1 8-8h319.4a8 8 0 0 1 8 8v31H559a8 8 0 0 0 8-8V8a8 8 0 0 0-8-8z" fill="#e0e0e0"/>
  <path d="M8 0h551a8 8 0 0 1 8 8v32H0V8a8 8 0 0 1 8-8z" fill="#fff"/>
  <path d="M24.9 22.8a9.9 9.9 0 0 1-.7-3.8c0-5.7 4.3-10.3 9.6-10.3s9.6 4.6 9.6 10.3a12.2 12.2 0 0 1-.7 3.8h2.5a12.6 12.6 0 0 0 .6-3.8c0-7.1-5.4-12.8-12-12.8s-12 5.7-12 12.8a16.5 16.5 0 0 0 .5 3.8z" fill="#f16322"/>
  <path d="M46.2 26.7H21.3a1.1 1.1 0 0 1-1.1-.6 1.5 1.5 0 0 1 0-1.3 1.1 1.1 0 0 1 1.1-.6h24.9a1.4 1.4 0 0 1 1.2.6 1.5 1.5 0 0 1 0 1.3 1.4 1.4 0 0 1-1.2.6zM41.3 27.8h-15a1 1 0 0 0-1.1.6.9.9 0 0 0 0 1.2 1.1 1.1 0 0 0 1.1.6h15a1.3 1.3 0 0 0 1.1-.6 1.3 1.3 0 0 0 0-1.2 1.1 1.1 0 0 0-1.1-.6" fill="#f5884f"/>
  <path d="M36.4 31.3h-5.3a1.4 1.4 0 0 0-1.1.6 1.5 1.5 0 0 0 0 1.3 1.4 1.4 0 0 0 1.1.6h5.3a1.3 1.3 0 0 0 1.1-1.3 1.3 1.3 0 0 0-1.1-1.2" fill="#f8ac80"/>
  <path d="M68.4 16.9a6 6 0 0 0-2.7.6 5.2 5.2 0 0 0-1.8 1.8 5 5 0 0 0-.7 2.7 4.6 4.6 0 0 0 .7 2.6 4.5 4.5 0 0 0 1.8 1.8 6.4 6.4 0 0 0 5.2.1 5.5 5.5 0 0 0 1.9-1.2l-1.4-1.4a3.4 3.4 0 0 1-1.2.9l-1.5.2a2.9 2.9 0 0 1-1.9-.6 2.5 2.5 0 0 1-1-1.6h7.5v-.7a5.4 5.4 0 0 0-1.2-3.8 4.8 4.8 0 0 0-3.7-1.4zm-2.7 4.3a2.8 2.8 0 0 1 .9-1.8 2.8 2.8 0 0 1 1.8-.6 3.1 3.1 0 0 1 1.9.6 2.3 2.3 0 0 1 .7 1.8zM105.1 22.4a2.7 2.7 0 0 0-1.2-.9l-1.7-.6-1.5-.5a.8.8 0 0 1-.4-.7c0-.4.1-.6.3-.7l1-.2 1.4.2 1.6.7.8-1.7a5.3 5.3 0 0 0-1.7-.8 6.3 6.3 0 0 0-1.9-.3 4.6 4.6 0 0 0-2.7.8 2.5 2.5 0 0 0-1.1 2.2 2.7 2.7 0 0 0 1.6 2.4l1.6.6 1.5.5a1 1 0 0 1 .5.8.8.8 0 0 1-.4.7 1.8 1.8 0 0 1-1.1.2l-1.8-.3a6.5 6.5 0 0 1-1.6-.9l-.8 1.7a4.9 4.9 0 0 0 1.9 1 5.7 5.7 0 0 0 2.2.4 4.7 4.7 0 0 0 2.8-.8 2.4 2.4 0 0 0 1.2-2.2 2.5 2.5 0 0 0-.5-1.6z" fill="#1e1e1e"/>
  <path d="M90.8 16.9a5.3 5.3 0 0 0-5.4 5.1 5.4 5.4 0 0 0 10.8 0 5.3 5.3 0 0 0-5.4-5.1zm0 8.2a3.2 3.2 0 1 1 3.3-3.1 3.3 3.3 0 0 1-3.3 3.1z" fill="#f16322"/>
  <path d="M60.9 17.8a4.3 4.3 0 0 0-6.6 1v-5l-2.5-.9V27h2.5v-5a2.9 2.9 0 0 1 .8-2.1 2.5 2.5 0 0 1 2-.8 2.1 2.1 0 0 1 1.6.6 2.1 2.1 0 0 1 .7 1.7V27h2.5v-6.4a4.1 4.1 0 0 0-1-2.8zM75.3 27H78V13.8l-2.7-.9V27zM81.4 27h2.7v-9.2l-2.7-.9V27z" fill="#1e1e1e"/>
  <circle cx="540.2" cy="20.8" r="6" fill="#4fd629"/>
  <circle cx="523.2" cy="20.8" r="6" fill="#eeff10"/>
  <circle cx="506.2" cy="20.8" r="6" fill="#ff4e10"/>
  <path d="M183.1 306H28.4a8 8 0 0 0-8 8v31h170.7v-31a8 8 0 0 0-8-8zM538.6 306H219.2a8 8 0 0 0-8 8v31h335.4v-31a8 8 0 0 0-8-8z" fill="#fff"/>
  <rect x="20" y="60" width="170.7" height="103" rx="8" ry="8" fill="#fff"/>
  <rect x="375.4" y="183" width="170.7" height="103" rx="8" ry="8" fill="#fff"/>
  <rect x="210.7" y="60" width="335.4" height="103" rx="8" ry="8" fill="#fff"/>
  <rect x="20" y="183" width="335.4" height="103" rx="8" ry="8" fill="#fff"/>
</svg>