<?xml version="1.0" encoding="UTF-8" standalone="no"?>
<svg width="19px" height="19px" viewBox="0 0 19 19" version="1.1" xmlns="http://www.w3.org/2000/svg" xmlns:xlink="http://www.w3.org/1999/xlink">
    <!-- Generator: Sketch 48.2 (47327) - http://www.bohemiancoding.com/sketch -->
    <title>Shape</title>
    <desc>Created with Sketch.</desc>
    <defs></defs>
    <g id="Mobile" stroke="none" stroke-width="1" fill="none" fill-rule="evenodd" transform="translate(-229.000000, -5340.000000)">
        <g id="Group-2" transform="translate(0.000000, 4998.000000)" fill="#F16322" fill-rule="nonzero">
            <g id="Group" transform="translate(71.500000, 340.500000)">
                <path d="M174.593129,2.43818348 L160.213163,2.43818348 C159.22454,2.43818348 158.415667,3.2470566 158.415667,4.2356793 L158.415667,18.6156459 C158.415667,19.6042686 159.22454,20.4131417 160.213163,20.4131417 L174.593129,20.4131417 C175.581752,20.4131417 176.390625,19.6042686 176.390625,18.6156459 L176.390625,4.2356793 C176.390625,3.2470566 175.581752,2.43818348 174.593129,2.43818348 Z M163.808154,17.716898 L161.11191,17.716898 L161.11191,9.62816678 L163.808154,9.62816678 L163.808154,17.716898 Z M162.460032,8.10029533 C161.561284,8.10029533 160.842286,7.381297 160.842286,6.48254909 C160.842286,5.58380117 161.561284,4.86480284 162.460032,4.86480284 C163.35878,4.86480284 164.077779,5.58380117 164.077779,6.48254909 C164.077779,7.381297 163.35878,8.10029533 162.460032,8.10029533 Z M173.694381,17.716898 L170.998138,17.716898 L170.998138,12.9535341 C170.998138,12.234571 170.369014,11.6054122 169.650016,11.6054122 C168.931017,11.6054122 168.301894,12.234571 168.301894,12.9535341 L168.301894,17.716898 L165.60565,17.716898 L165.60565,9.62816678 L168.301894,9.62816678 L168.301894,10.7066643 C168.751268,9.98766594 169.73989,9.4484172 170.548764,9.4484172 C172.256385,9.4484172 173.694381,10.8864139 173.694381,12.5940349 L173.694381,17.716898 Z" id="Shape"></path>
            </g>
        </g>
    </g>
</svg>