<?xml version="1.0" encoding="UTF-8" standalone="no"?>
<svg width="22px" height="19px" viewBox="0 0 22 19" version="1.1" xmlns="http://www.w3.org/2000/svg" xmlns:xlink="http://www.w3.org/1999/xlink">
    <!-- Generator: Sketch 48.2 (47327) - http://www.bohemiancoding.com/sketch -->
    <title>Shape</title>
    <desc>Created with Sketch.</desc>
    <defs></defs>
    <g id="Mobile" stroke="none" stroke-width="1" fill="none" fill-rule="evenodd" transform="translate(-72.000000, -5339.000000)">
        <g id="Group-2" transform="translate(0.000000, 4998.000000)" fill="#F16322" fill-rule="nonzero">
            <g id="Group" transform="translate(71.500000, 340.500000)">
                <path d="M7.99153637,4.05639158 L7.99153637,17.9838322 C7.99153637,18.1817214 7.94206408,18.3499272 7.84311949,18.4884496 C7.7441749,18.6269721 7.59971579,18.6962333 7.40974218,18.6962333 C7.27517754,18.6962333 7.14457068,18.664571 7.0179216,18.6012465 L1.49681342,15.8347557 C1.33058651,15.7556 1.19008519,15.6230143 1.07530946,15.4369984 C0.960533736,15.2509826 0.903145873,15.0669457 0.903145873,14.8848876 L0.903145873,1.34926757 C0.903145873,1.19095622 0.94272371,1.05639158 1.02187938,0.945573638 C1.10103506,0.834755696 1.21581078,0.779346725 1.36620656,0.779346725 C1.4770245,0.779346725 1.65116698,0.838713479 1.888634,0.957446989 L7.95591632,3.99702482 C7.97966302,4.02077153 7.99153637,4.04056045 7.99153637,4.05639158 Z M8.75143083,5.25560002 L15.0918002,15.5379219 L8.75143083,12.3796106 L8.75143083,5.25560002 Z M22.1801907,5.46932034 L22.1801907,17.9838322 C22.1801907,18.1817214 22.1247818,18.3420116 22.0139638,18.4647029 C21.9031459,18.5873942 21.7527501,18.6487399 21.5627765,18.6487399 C21.3728029,18.6487399 21.186787,18.5972887 21.004729,18.4943863 L15.7685812,15.8822491 L22.1801907,5.46932034 Z M22.1445707,4.04451823 C22.1445707,4.06826493 21.1293992,5.72855517 19.0990562,9.02538894 C17.0687132,12.3222227 15.8793992,14.2516422 15.5311142,14.8136475 L10.9005074,7.28594303 L14.747473,1.02868709 C14.8820377,0.80705121 15.0878424,0.696233268 15.3648873,0.696233268 C15.4757052,0.696233268 15.5786076,0.71997997 15.6735944,0.767473374 L22.0970773,3.97327812 C22.1287395,3.98910926 22.1445707,4.01285596 22.1445707,4.04451823 Z" id="Shape"></path>
            </g>
        </g>
    </g>
</svg>