<?xml version="1.0" encoding="UTF-8" standalone="no"?>
<svg width="22px" height="19px" viewBox="0 0 22 19" version="1.1" xmlns="http://www.w3.org/2000/svg" xmlns:xlink="http://www.w3.org/1999/xlink">
    <!-- Generator: Sketch 48.2 (47327) - http://www.bohemiancoding.com/sketch -->
    <title>Shape</title>
    <desc>Created with Sketch.</desc>
    <defs></defs>
    <g id="Mobile" stroke="none" stroke-width="1" fill="none" fill-rule="evenodd" transform="translate(-173.000000, -5340.000000)">
        <g id="Group-2" transform="translate(0.000000, 4998.000000)" fill="#F16322" fill-rule="nonzero">
            <g id="Group" transform="translate(71.500000, 340.500000)">
                <path d="M108.409102,19.6000016 C116.671469,19.6000016 121.189836,12.7550057 121.189836,6.81926694 C121.189836,6.6248449 121.185876,6.43130449 121.177156,6.23863837 C122.054233,5.60458286 122.816552,4.81333225 123.417825,3.91259755 C122.612968,4.27034939 121.746837,4.51118204 120.838241,4.61977715 C121.765645,4.06366531 122.477637,3.1839649 122.813539,2.13526286 C121.945645,2.64977633 120.984519,3.02372817 119.961164,3.22562204 C119.141466,2.35251184 117.974478,1.80641388 116.682298,1.80641388 C114.201678,1.80641388 112.190086,3.81807919 112.190086,6.29774449 C112.190086,6.65023592 112.229495,6.99310286 112.306565,7.32198123 C108.573218,7.13412735 105.26276,5.34668327 103.047218,2.62875674 C102.661445,3.29258204 102.439001,4.06368735 102.439001,4.88647102 C102.439001,6.44490368 103.23203,7.82069143 104.437956,8.62554857 C103.700985,8.60277894 103.008683,8.4004751 102.403589,8.06374286 C102.402928,8.08258923 102.402928,8.10096319 102.402928,8.12110555 C102.402928,10.2965341 103.951295,12.1128443 106.006675,12.5244198 C105.629218,12.6273211 105.232087,12.6824966 104.822201,12.6824966 C104.533202,12.6824966 104.251638,12.6540522 103.977965,12.6014892 C104.549836,14.3862811 106.208128,15.6850729 108.174169,15.7213668 C106.636748,16.9264117 104.700022,17.6441341 102.595124,17.6441341 C102.232993,17.6441341 101.875249,17.6235362 101.523646,17.581954 C103.511654,18.8562071 105.872226,19.5997173 108.409344,19.5997173" id="Shape"></path>
            </g>
        </g>
    </g>
</svg>