<svg xmlns="http://www.w3.org/2000/svg" class="Monitoring-svg" viewBox="0 -100 1400 700" style="visibility: visible;"><style>.Monitoring-point0{fill:none;stroke:url(#Monitoring-grad1);stroke-miterlimit:10;} .Monitoring-point1{fill:url(#Monitoring-grad2);} .Monitoring-point2{fill:url(#Monitoring-grad3);} .Monitoring-point3{fill:none;stroke:#FFFFFF;stroke-miterlimit:10;} .Monitoring-point4{fill:#FFFFFF;stroke:#FFFFFF;stroke-miterlimit:10;} .Monitoring-point5{fill:url(#Monitoring-grad4);} .Monitoring-point6{fill:url(#Monitoring-grad5);} .Monitoring-point7{fill:none;stroke:url(#Monitoring-grad6);stroke-miterlimit:10;} .Monitoring-point8{fill:none;stroke:url(#Monitoring-grad7);stroke-miterlimit:10;} .Monitoring-point9{fill:url(#Monitoring-grad8);} .Monitoring-point10{fill:url(#Monitoring-grad9);} .Monitoring-point11{fill:url(#Monitoring-grad10);} .Monitoring-point12{fill:url(#Monitoring-grad11);} .Monitoring-point13{fill:url(#Monitoring-grad12);} .Monitoring-point14{fill:url(#Monitoring-grad13);} .Monitoring-point15{fill:url(#Monitoring-grad14);} .Monitoring-point16{fill:none;stroke:url(#Monitoring-grad15);stroke-miterlimit:10;} .Monitoring-point17{fill:url(#Monitoring-grad16);} .Monitoring-point18{fill:none;stroke:url(#Monitoring-grad17);stroke-miterlimit:10;} .Monitoring-point19{fill:url(#Monitoring-grad18);} .Monitoring-point20{fill:none;stroke:url(#Monitoring-grad19);stroke-miterlimit:10;}</style><g class="Monitoring-background" data-svg-origin="292.5 5.900000095367432" style="visibility: inherit; opacity: 1; transform: matrix(1, 0, 0, 1, 0, 0);"><linearGradient id="Monitoring-grad1" gradientUnits="userSpaceOnUse" x1="597.107" y1="432.352" x2="853.836" y2="432.352"><stop offset="0" stop-color="#FFFFFF"></stop><stop offset="1" stop-color="#FFFFFF" stop-opacity="0"></stop></linearGradient><path class="Monitoring-point0" d="M700 505.9l152.8-88.3-101.9-58.8-152.8 88.3z"></path><linearGradient id="Monitoring-grad2" gradientUnits="userSpaceOnUse" x1="903.771" y1="388.235" x2="1005.66" y2="211.758"><stop offset="0" stop-color="#FFFFFF"></stop><stop offset="1" stop-color="#FFFFFF" stop-opacity="0"></stop></linearGradient><path class="Monitoring-point1" d="M801.9 329.4l101.9 58.8 203.7-117.6-101.8-58.8z"></path><linearGradient id="Monitoring-grad3" gradientUnits="userSpaceOnUse" x1="852.82" y1="432.353" x2="1107.549" y2="432.353"><stop offset="0" stop-color="#FFFFFF" stop-opacity=".4"></stop><stop offset="1" stop-color="#FFFFFF" stop-opacity="0"></stop></linearGradient><path class="Monitoring-point2" d="M852.8 476.5l203.8-117.7 50.9 29.4-203.7 117.7z"></path><linearGradient id="Monitoring-grad4" gradientUnits="userSpaceOnUse" x1="483.491" y1="439.712" x2="508.966" y2="395.588"><stop offset="0" stop-color="#FFFFFF" stop-opacity=".4"></stop><stop offset="1" stop-color="#FFFFFF" stop-opacity="0"></stop></linearGradient><path class="Monitoring-point5" d="M547.2 417.7l-51 29.4-50.9-29.5 50.9-29.4z"></path><linearGradient id="Monitoring-grad5" gradientUnits="userSpaceOnUse" x1="547.164" y1="314.706" x2="801.893" y2="314.706"><stop offset="0" stop-color="#FFFFFF"></stop><stop offset="1" stop-color="#FFFFFF" stop-opacity="0"></stop></linearGradient><path class="Monitoring-point6" d="M598.1 388.2l203.8-117.6-51-29.4-203.7 117.6z"></path><linearGradient id="Monitoring-grad6" gradientUnits="userSpaceOnUse" x1="698.992" y1="211.761" x2="802.894" y2="211.761"><stop offset="0" stop-color="#FFFFFF"></stop><stop offset="1" stop-color="#FFFFFF" stop-opacity="0"></stop></linearGradient><path class="Monitoring-point7" d="M750.9 241.2l51-29.4-51-29.5-50.9 29.5z"></path><linearGradient id="Monitoring-grad7" gradientUnits="userSpaceOnUse" x1="1106.533" y1="270.593" x2="1210.435" y2="270.593"><stop offset="0" stop-color="#FFFFFF"></stop><stop offset="1" stop-color="#FFFFFF" stop-opacity="0"></stop></linearGradient><path class="Monitoring-point8" d="M1107.5 270.6l51 29.4 50.9-29.4-50.9-29.4z"></path><linearGradient id="Monitoring-grad8" gradientUnits="userSpaceOnUse" x1="598.117" y1="550.001" x2="750.935" y2="550.001"><stop offset="0" stop-color="#FFFFFF"></stop><stop offset="1" stop-color="#FFFFFF" stop-opacity="0"></stop></linearGradient><path class="Monitoring-point9" d="M700 505.9l-101.9 58.8 51 29.4 101.8-58.8z"></path><linearGradient id="Monitoring-grad9" gradientUnits="userSpaceOnUse" x1="852.819" y1="167.643" x2="1005.663" y2="167.643"><stop offset="0" stop-color="#FFFFFF" stop-opacity=".4"></stop><stop offset="1" stop-color="#FFFFFF" stop-opacity="0"></stop></linearGradient><path class="Monitoring-point10" d="M903.8 211.8l101.9-58.9-51-29.4-101.9 58.8z"></path><linearGradient id="Monitoring-grad13" gradientUnits="userSpaceOnUse" x1="547.164" y1="182.353" x2="649.065" y2="182.353"><stop offset="0" stop-color="#FFFFFF"></stop><stop offset="1" stop-color="#FFFFFF" stop-opacity="0"></stop></linearGradient><path class="Monitoring-point14" d="M598.1 211.8l51-29.4-51-29.5-50.9 29.5z"></path><linearGradient id="Monitoring-grad14" gradientUnits="userSpaceOnUse" x1="1018.389" y1="630.89" x2="1094.807" y2="498.531"><stop offset="0" stop-color="#FFFFFF"></stop><stop offset="1" stop-color="#FFFFFF" stop-opacity="0"></stop></linearGradient><path class="Monitoring-point15" d="M903.8 564.7l152.8-88.2 152.8 88.2-152.8 88.2z"></path><linearGradient id="Monitoring-grad15" gradientUnits="userSpaceOnUse" x1="1157.492" y1="461.76" x2="1312.304" y2="461.76"><stop offset="0" stop-color="#FFFFFF"></stop><stop offset="1" stop-color="#FFFFFF" stop-opacity="0"></stop></linearGradient><path class="Monitoring-point16" d="M1158.5 476.5l101.9-58.9 50.9 29.5-101.9 58.8z"></path><linearGradient id="Monitoring-grad16" gradientUnits="userSpaceOnUse" x1="496.223" y1="564.704" x2="598.117" y2="564.704"><stop offset="0" stop-color="#FFFFFF"></stop><stop offset="1" stop-color="#FFFFFF" stop-opacity="0"></stop></linearGradient><path class="Monitoring-point17" d="M598.1 564.7l-50.9-29.4-51 29.4 51 29.4z"></path><linearGradient id="Monitoring-grad17" gradientUnits="userSpaceOnUse" x1="291.453" y1="535.293" x2="497.238" y2="535.293"><stop offset="0" stop-color="#FFFFFF"></stop><stop offset="1" stop-color="#FFFFFF" stop-opacity="0"></stop></linearGradient><path class="Monitoring-point18" d="M445.3 476.5l-152.8 88.2 50.9 29.4 152.8-88.2z"></path><linearGradient id="Monitoring-grad18" gradientUnits="userSpaceOnUse" x1="1107.544" y1="211.768" x2="1209.434" y2="35.289"><stop offset="0" stop-color="#FFFFFF"></stop><stop offset="1" stop-color="#FFFFFF" stop-opacity="0"></stop></linearGradient><path class="Monitoring-point19" d="M1005.7 152.9l203.7-117.6 101.9 58.8-203.8 117.7z"></path><linearGradient id="Monitoring-grad19" gradientUnits="userSpaceOnUse" x1="495.223" y1="79.413" x2="751.951" y2="79.413"><stop offset="0" stop-color="#FFFFFF"></stop><stop offset="1" stop-color="#FFFFFF" stop-opacity="0"></stop></linearGradient><path class="Monitoring-point20" d="M598.1 152.9L751 64.7 649 5.9 496.2 94.1z"></path></g><g class="Monitoring-boxes"><path class="Monitoring-point3" d="M547.2 397.7l-51 29.4-50.9-29.5 50.9-29.4z" data-svg-origin="445.3000183105469 368.20001220703125" style="visibility: inherit; opacity: 1; transform: matrix(1, 0, 0, 1, 0, 0);"></path><path class="Monitoring-point3" d="M852.8 456.5l203.8-117.7 50.9 29.4-203.7 117.7z" data-svg-origin="852.7999877929688 338.79998779296875" style="visibility: inherit; opacity: 1; transform: matrix(1, 0, 0, 1, 0, 0);"></path><path class="Monitoring-point3" d="M903.8 191.8l101.9-58.9-51-29.4-101.9 58.8z" data-svg-origin="852.7999877929688 103.49999237060547" style="visibility: inherit; opacity: 1; transform: matrix(1, 0, 0, 1, 0, 0);"></path></g><g class="Monitoring-lines"><path class="Monitoring-point3" d="M980.2 412.4v-87.1" style="stroke-dashoffset: 2e-05; stroke-dasharray: none;"></path><path class="Monitoring-point3" d="M496.2 397.7v-87.1" style="stroke-dashoffset: 2e-05; stroke-dasharray: none;"></path><path class="Monitoring-point3" d="M929.2 147.6v-87" style="stroke-dashoffset: 2e-05; stroke-dasharray: none;"></path></g><g class="Monitoring-sonars"><radialGradient id="Monitoring-grad12" cx="496.223" cy="310.632" r="44.669" gradientUnits="userSpaceOnUse"><stop offset="0" stop-color="#FFFFFF" stop-opacity=".6"></stop><stop offset="1" stop-color="#FFFFFF" stop-opacity=".4"></stop></radialGradient><circle class="Monitoring-point13" cx="496.2" cy="310.6" r="119.80799999999998" style="visibility: inherit; opacity: 0.0016;"></circle><radialGradient id="Monitoring-grad10" cx="980.172" cy="325.333" r="25.333" gradientUnits="userSpaceOnUse"><stop offset="0" stop-color="#FFFFFF" stop-opacity=".6"></stop><stop offset="1" stop-color="#FFFFFF" stop-opacity=".4"></stop></radialGradient><circle class="Monitoring-point11" cx="980.2" cy="325.3" r="116.39466666666652" style="visibility: inherit; opacity: 0.0300444;"></circle><radialGradient id="Monitoring-grad11" cx="929.249" cy="60.624" r="36.94" gradientUnits="userSpaceOnUse"><stop offset="0" stop-color="#FFFFFF" stop-opacity=".6"></stop><stop offset="1" stop-color="#FFFFFF" stop-opacity=".4"></stop></radialGradient><circle class="Monitoring-point12" cx="929.2" cy="60.6" r="108.71466666666628" style="visibility: inherit; opacity: 0.0940444;"></circle></g><g class="Monitoring-dots"><circle class="Monitoring-point4" cx="496.2" cy="310.6" r="4.6" data-svg-origin="496.2000060081482 310.59999990463257" style="transform: matrix(1, 0, 0, 1, 0, 0);"></circle><circle class="Monitoring-point4" cx="980.2" cy="325.3" r="4.6" data-svg-origin="980.2000365257263 325.2999815940857" style="transform: matrix(1, 0, 0, 1, 0, 0);"></circle><circle class="Monitoring-point4" cx="929.2" cy="60.6" r="4.6" data-svg-origin="929.2000365257263 60.59999990463257" style="transform: matrix(1, 0, 0, 1, 0, 0);"></circle></g></svg>