<?xml version="1.0" encoding="UTF-8" standalone="no"?>
<svg width="123px" height="40px" viewBox="0 0 123 40" version="1.1" xmlns="http://www.w3.org/2000/svg" xmlns:xlink="http://www.w3.org/1999/xlink">
    <!-- Generator: Sketch 48.2 (47327) - http://www.bohemiancoding.com/sketch -->
    <title>logo</title>
    <desc>Created with Sketch.</desc>
    <defs></defs>
    <g id="Mobile" stroke="none" stroke-width="1" fill="none" fill-rule="evenodd" transform="translate(-25.000000, -15.000000)">
        <g id="header-bottom" fill-rule="nonzero">
            <g id="logo" transform="translate(25.000000, 14.500000)">
                <g id="sun-colored" transform="translate(0.500000, 0.620000)">
                    <path d="M6.95634771,23.6389915 C6.30436595,21.8995828 5.97056882,20.0515035 5.97173233,18.1876345 C5.97173233,10.0887105 12.1275797,3.49445961 19.6923077,3.49445961 C27.2570357,3.49445961 33.4128831,10.0887105 33.4128831,18.1876345 C33.4140466,20.0515035 33.0802494,21.8995828 32.4282677,23.6389915 L36.0305191,23.6389915 C36.5539851,21.8719377 36.8183807,20.0346751 36.8150093,18.1876345 C36.8150093,8.15647985 29.1382114,0 19.6923077,0 C10.246404,0 2.569606,8.15647985 2.569606,18.1876345 C2.56623467,20.0346751 2.83063026,21.8719377 3.35409631,23.6389915 L6.95634771,23.6389915 Z" id="Shape" fill="#F16322"></path>
                    <path d="M37.5194496,29.1890156 L1.86516573,29.1890156 C1.22958179,29.2338259 0.622693082,28.9109518 0.291633875,28.3518725 C-0.0394253318,27.7927932 -0.0394253318,27.0907784 0.291633875,26.531699 C0.622693082,25.9726197 1.22958179,25.6497456 1.86516573,25.694556 L37.5194496,25.694556 C38.1550335,25.6497456 38.7619223,25.9726197 39.0929815,26.531699 C39.4240407,27.0907784 39.4240407,27.7927932 39.0929815,28.3518725 C38.7619223,28.9109518 38.1550335,29.2338259 37.5194496,29.1890156 Z" id="Shape" fill="#F5884F"></path>
                    <path d="M30.4270169,30.7759114 L8.9575985,30.7759114 C8.32201456,30.731101 7.71512586,31.0539751 7.38406665,31.6130545 C7.05300744,32.1721337 7.05300744,32.8741486 7.38406665,33.4332279 C7.71512586,33.9923072 8.32201456,34.3151813 8.9575985,34.270371 L30.4270169,34.270371 C31.0626008,34.3151813 31.6694895,33.9923072 32.0005487,33.4332279 C32.3316079,32.8741486 32.3316079,32.1721337 32.0005487,31.6130545 C31.6694895,31.0539751 31.0626008,30.731101 30.4270169,30.7759114" id="Shape" fill="#F5884F"></path>
                    <path d="M23.4546592,35.8490445 L15.9299562,35.8490445 C15.2943723,35.8042342 14.6874836,36.1271082 14.3564244,36.6861876 C14.0253651,37.2452669 14.0253651,37.9472817 14.3564244,38.506361 C14.6874836,39.0654403 15.2943723,39.3883145 15.9299562,39.3435041 L23.4546592,39.3435041 C24.3489204,39.2804563 25.0429642,38.5169669 25.0429642,37.5962743 C25.0429642,36.6755816 24.3489204,35.9120923 23.4546592,35.8490445" id="Shape" fill="#F8AC80"></path>
                </g>
                <g id="type-colored" transform="translate(45.950781, 10.120000)">
                    <path d="M23.7257143,5.76 C22.2921833,5.76 21.0113208,6.06440252 19.8831267,6.67320755 C18.7794252,7.26703399 17.8700921,8.15110782 17.2592992,9.22415094 C16.6330997,10.3210063 16.32,11.5738365 16.32,12.9826415 C16.32,14.3914465 16.6279245,15.641761 17.2437736,16.7335849 C17.8498137,17.8050218 18.7644316,18.6811184 19.8753639,19.2543396 C21.0087332,19.8581132 22.3180593,20.16 23.8033423,20.16 C25.076442,20.16 26.2330997,19.9486792 27.2733154,19.5184906 C28.285849,19.1212855 29.1932895,18.5073333 29.9281941,17.7222642 L28.0263073,15.7901887 C27.5223402,16.299651 26.9141091,16.7007309 26.2408625,16.9675472 C25.5637737,17.2385955 24.8383282,17.3770897 24.1060916,17.3750943 C23.0348248,17.3750943 22.1343396,17.0883019 21.3968733,16.514717 C20.659407,15.9411321 20.1781132,15.1562264 19.9374663,14.1524528 L30.6889488,14.1524528 C30.7122372,13.9184906 30.72,13.5788679 30.72,13.1184906 C30.72,10.7864151 30.1377898,8.98264151 28.9656065,7.69207547 C27.7934232,6.40150943 26.0467925,5.76 23.7257143,5.76 Z M19.8598383,11.850566 C20.0228571,10.7939623 20.4498113,9.96377358 21.1484636,9.35245283 C21.8471159,8.74113208 22.7165499,8.43924528 23.7490027,8.43924528 C24.7814555,8.43924528 25.7440431,8.74867925 26.419407,9.36754717 C27.0947709,9.98641509 27.444097,10.8090566 27.4829111,11.850566 L19.8598383,11.850566 Z" id="Shape" fill="#1E1E1E"></path>
                    <path d="M76.0928317,13.6295946 C75.6471283,13.0777426 75.0767466,12.6370882 74.4275644,12.3430747 C73.7888317,12.0496578 72.967604,11.756241 71.9714851,11.4553007 C70.9753663,11.1543603 70.3442376,10.9437021 69.9108119,10.7029498 C69.4773861,10.4621976 69.2568713,10.1311632 69.2568713,9.68727618 C69.2568713,9.24338918 69.4241584,8.95749586 69.7739406,8.75436113 C70.1237228,8.5512264 70.5875644,8.44589728 71.1730693,8.44589728 C71.7585743,8.44589728 72.4733465,8.56627342 73.2109307,8.79197867 C73.9628895,9.02452755 74.685028,9.3426433 75.3628515,9.73994074 L76.609901,7.26470645 C75.8641411,6.76731438 75.0426353,6.3913879 74.1766337,6.15122719 C73.2698153,5.89080963 72.3302228,5.75908791 71.3859802,5.76000475 C69.8449109,5.76000475 68.5598416,6.123641 67.5307723,6.85091348 C66.501703,7.57818597 65.9922376,8.63900067 66.0023762,10.0333576 C66.0023762,10.9286551 66.2228911,11.6509119 66.6639208,12.2076515 C67.0809988,12.7397508 67.6206958,13.1653925 68.2379406,13.4490304 C69.0016186,13.7764287 69.7865794,14.052908 70.5875644,14.2766164 C71.5836832,14.5775567 72.3060594,14.848403 72.7470891,15.0966788 C73.1881188,15.3449546 73.4162376,15.7136065 73.4162376,16.2026345 C73.4345175,16.616534 73.2092937,17.0035733 72.8383366,17.1957377 C72.4581386,17.4139194 71.9486733,17.526772 71.3099406,17.526772 C70.5039208,17.526772 69.6598812,17.3687784 68.7702178,17.0603145 C67.9325353,16.7807384 67.1559274,16.3467633 66.4814257,15.7813181 L65.28,18.1813173 C66.0099802,18.813292 66.8996436,19.30232 67.9489901,19.6484014 C68.9894585,19.9870376 70.0777546,20.159729 71.1730693,20.16 C72.7927129,20.16 74.1310099,19.7913481 75.2031683,19.0540443 C76.2753267,18.3167404 76.8,17.2634492 76.8,15.8866472 C76.8,14.9537321 76.5642772,14.2013813 76.0928317,13.6295946 Z" id="Shape" fill="#1E1E1E"></path>
                    <path d="M55.6838886,5.76 C51.4375291,5.76 48,8.98456326 48,12.9638115 C48,16.9430598 51.4375291,20.16 55.6838886,20.16 C59.9302481,20.16 63.36,16.9354367 63.36,12.9638115 C63.36,8.99218634 59.9224709,5.76 55.6838886,5.76 Z M55.6838886,17.4233139 C53.0474127,17.4233139 50.9164557,15.4260667 50.9164557,12.9638115 C50.9164557,10.5015564 53.0474127,8.49668608 55.6838886,8.49668608 C58.3203646,8.49668608 60.4435443,10.4939333 60.4435443,12.9638115 C60.4435443,15.4336898 58.3125873,17.4233139 55.6838886,17.4233139 Z" id="Shape" fill="#F16322"></path>
                    <path d="M12.9410734,6.99634128 C11.9631982,5.98911606 10.622563,5.48550346 8.93493976,5.48550346 C6.39036145,5.52682552 4.61336254,6.4953113 3.60394304,8.3909608 L3.60394304,1.28614912 L0,0 L0,20.16 L3.60394304,20.16 L3.60394304,13.0164489 C3.60394304,11.8000307 3.950931,10.8005534 4.65279299,10.0257648 C5.35465498,9.25097617 6.30098576,8.84808609 7.5075575,8.83259032 C8.516977,8.83259032 9.32135816,9.12700999 9.9128149,9.71584935 C10.5042716,10.3046887 10.803943,11.102721 10.803943,12.1176941 L10.803943,20.16 L14.4,20.16 L14.4,11.0872252 C14.4,9.36719447 13.9136911,8.00356649 12.9410734,6.99634128 Z" id="Shape" fill="#1E1E1E"></path>
                    <polygon id="Shape" fill="#1E1E1E" points="33.6 20.16 37.44 20.16 37.44 1.28614912 33.6 0"></polygon>
                    <polygon id="Shape" fill="#1E1E1E" points="42.24 20.16 46.08 20.16 46.08 7.03420043 42.24 5.76"></polygon>
                </g>
            </g>
        </g>
    </g>
</svg>