<svg xmlns="http://www.w3.org/2000/svg" width="1020.8" height="647.6" viewBox="0 0 1020.8 647.6"><title>slide-1-bg</title><path d="M408.5,500.6l152.8-88.3L459.4,353.5,306.6,441.8Z" fill="none" stroke="#f16322" stroke-miterlimit="10"/><path d="M510.4,324.1l101.9,58.8L816,265.3,714.2,206.5Z" fill="#f16322"/><path d="M579.9,489.8,783.7,372.1l50.9,29.4L630.9,519.2Z" fill="#f16322" opacity="0.5"/><path d="M255.7,412.4l-51,29.4-50.9-29.5,50.9-29.4Z" fill="#f16322" opacity="0.5"/><path d="M306.6,382.9,510.4,265.3l-51-29.4L255.7,353.5Z" fill="#f16322"/><path d="M459.4,235.9l51-29.4-51-29.5-50.9,29.5Z" fill="none" stroke="#f16322" stroke-miterlimit="10"/><path d="M816,265.3l51,29.4,50.9-29.4L867,235.9Z" fill="none" stroke="#f16322" stroke-miterlimit="10"/><path d="M408.5,500.6,306.6,559.4l51,29.4L459.4,530Z" fill="#f16322"/><path d="M612.3,206.5l101.9-58.9-51-29.4L561.3,177Z" fill="#f16322" opacity="0.5"/><path d="M306.6,206.5l51-29.4-51-29.5-50.9,29.5Z" fill="#f16322"/><path d="M612.3,559.4l152.8-88.2,152.8,88.2L765.1,647.6Z" fill="#f16322"/><path d="M867,471.2l101.9-58.9,50.9,29.5L917.9,500.6Z" fill="none" stroke="#f16322" stroke-miterlimit="10"/><path d="M306.6,559.4,255.7,530l-51,29.4,51,29.4Z" fill="#f16322"/><path d="M153.8,471.2,1,559.4l50.9,29.4,152.8-88.2Z" fill="none" stroke="#f16322" stroke-miterlimit="10"/><path d="M714.2,147.6,917.9,30l101.9,58.8L816,206.5Z" fill="#f16322"/><path d="M306.6,147.6,459.5,59.4,357.5.6,204.7,88.8Z" fill="none" stroke="#f16322" stroke-miterlimit="10"/><path d="M255.7,392.4l-51,29.4-50.9-29.5,50.9-29.4Z" fill="none" stroke="#f16322" stroke-miterlimit="10"/><path d="M579.9,469.8,783.7,352.1l50.9,29.4L630.9,499.2Z" fill="none" stroke="#f16322" stroke-miterlimit="10"/><path d="M612.3,186.5l101.9-58.9-51-29.4L561.3,157Z" fill="none" stroke="#f16322" stroke-miterlimit="10"/><path d="M707.3,425.7V338.6" fill="none" stroke="#f16322" stroke-miterlimit="10"/><path d="M204.7,392.4V305.3" fill="none" stroke="#f16322" stroke-miterlimit="10"/><path d="M637.7,142.3v-87" fill="none" stroke="#f16322" stroke-miterlimit="10"/><circle cx="204.7" cy="305.3" r="4.6" fill="#f16322" stroke="#f16322" stroke-miterlimit="10" opacity="0.5"/><circle cx="707.3" cy="338.6" r="4.6" fill="#f16322" stroke="#f16322" stroke-miterlimit="10" opacity="0.5"/><circle cx="637.7" cy="55.3" r="4.6" fill="#f16322" stroke="#f16322" stroke-miterlimit="10" opacity="0.5"/></svg>