<?xml version="1.0" encoding="UTF-8" standalone="no"?>
<svg width="116px" height="116px" viewBox="0 0 116 116" version="1.1" xmlns="http://www.w3.org/2000/svg" xmlns:xlink="http://www.w3.org/1999/xlink">
    <!-- Generator: Sketch 48.2 (47327) - http://www.bohemiancoding.com/sketch -->
    <title>sun-colored</title>
    <desc>Created with Sketch.</desc>
    <defs></defs>
    <g id="Desktop-HD" stroke="none" stroke-width="1" fill="none" fill-rule="evenodd" transform="translate(-661.000000, -781.000000)">
        <g id="sun-colored" transform="translate(661.500000, 781.000000)" fill-rule="nonzero">
            <path d="M20.3600421,69.1872922 C18.4518028,64.0963398 17.4748356,58.6873273 17.478241,53.2321009 C17.478241,29.527933 35.4953552,10.2276867 57.6360225,10.2276867 C79.7766898,10.2276867 97.7938041,29.527933 97.7938041,53.2321009 C97.7972095,58.6873273 96.8202423,64.0963398 94.912003,69.1872922 L105.455178,69.1872922 C106.987274,64.0154275 107.761114,58.6380734 107.751247,53.2321009 C107.751247,23.8726239 85.2825699,0 57.6360225,0 C29.9894751,0 7.52079805,23.8726239 7.52079805,53.2321009 C7.51093073,58.6380734 8.28477148,64.0154275 9.81686724,69.1872922 L20.3600421,69.1872922 Z" id="Shape" fill="#F16322"></path>
            <path d="M109.813023,85.4312651 L5.45902166,85.4312651 C3.59877598,85.5624174 1.82251634,84.6174199 0.853562561,82.9810903 C-0.115391215,81.3447607 -0.115391215,79.290083 0.853562561,77.6537531 C1.82251634,76.0174235 3.59877598,75.0724263 5.45902166,75.2035785 L109.813023,75.2035785 C111.673269,75.0724263 113.449529,76.0174235 114.418483,77.6537531 C115.387436,79.290083 115.387436,81.3447607 114.418483,82.9810903 C113.449529,84.6174199 111.673269,85.5624174 109.813023,85.4312651 Z" id="Shape" fill="#F5884F"></path>
            <path d="M89.0546837,90.0758382 L26.2173615,90.0758382 C24.3571158,89.9446859 22.5808562,90.8896832 21.6119024,92.5260131 C20.6429486,94.1623427 20.6429486,96.2170203 21.6119024,97.8533499 C22.5808562,99.4896795 24.3571158,100.434677 26.2173615,100.303525 L89.0546837,100.303525 C90.9149292,100.434677 92.6911889,99.4896795 93.6601426,97.8533499 C94.6290963,96.2170203 94.6290963,94.1623427 93.6601426,92.5260131 C92.6911889,90.8896832 90.9149292,89.9446859 89.0546837,90.0758382" id="Shape" fill="#F5884F"></path>
            <path d="M68.647783,104.924033 L46.6242621,104.924033 C44.7640165,104.79288 42.9877568,105.737878 42.0188032,107.374208 C41.0498492,109.010537 41.0498492,111.065215 42.0188032,112.701544 C42.9877568,114.337874 44.7640165,115.282872 46.6242621,115.151719 L68.647783,115.151719 C71.2651329,114.967189 73.2964806,112.732586 73.2964806,110.037876 C73.2964806,107.343166 71.2651329,105.108563 68.647783,104.924033" id="Shape" fill="#F8AC80"></path>
        </g>
    </g>
</svg>